<svg xmlns="http://www.w3.org/2000/svg" width="1000" height="284" viewBox="0 0 1000 284" role="img" aria-labelledby="title desc">
<title id="title">A structured approach</title><desc id="desc">Define scope, map the attack surface, validate weaknesses, connect the findings, and report actionable remediation.</desc>
<defs>
<linearGradient id="panel" x1="0" y1="0" x2="1" y2="1"><stop stop-color="#10152a" /><stop offset="1" stop-color="#070b14" /></linearGradient>
<linearGradient id="card" x1="0" y1="0" x2="1" y2="1"><stop stop-color="#141c32" /><stop offset="1" stop-color="#0c1222" /></linearGradient>
<linearGradient id="spectrum" gradientUnits="userSpaceOnUse" x1="32" y1="1" x2="968" y2="1"><stop stop-color="#60e7f9" /><stop offset="0.5" stop-color="#a78bfa" /><stop offset="1" stop-color="#ff73b9" /></linearGradient>
<radialGradient id="halo"><stop stop-color="#5941b8" stop-opacity=".28" /><stop offset="1" stop-color="#5941b8" stop-opacity="0" /></radialGradient>
<filter id="glow" x="-100%" y="-100%" width="300%" height="300%"><feGaussianBlur stdDeviation="3" /></filter>
<pattern id="grid" width="28" height="28" patternUnits="userSpaceOnUse"><path d="M28 0H0V28" fill="none" stroke="#7386bd" stroke-opacity=".045" /></pattern>
</defs>
<style>
.trace {stroke-dasharray:28 580; animation:travel 11s linear infinite;}
.trace-alt {stroke-dasharray:18 510; animation:travel 15s linear infinite reverse;}
.breathe {animation:breathe 5s ease-in-out infinite;}
@keyframes travel {to {stroke-dashoffset:-1216;}}
@keyframes breathe {0%,100% {opacity:.30;} 50% {opacity:.65;}}
@media (prefers-reduced-motion: reduce) { .trace,.trace-alt,.breathe {animation:none;} }
</style>
<rect x="1" y="1" width="998" height="282" rx="24" fill="url(#panel)" stroke="#26304a" />
<rect x="2" y="2" width="996" height="280" rx="23" fill="url(#grid)" />
<ellipse cx="830.0" cy="55" rx="350.0" ry="230" fill="url(#halo)" />
<path d="M32 1H968" stroke="url(#spectrum)" stroke-width="2" opacity=".8" />
<path fill="#9faccc" d="M35.57 46V36.928H32.77V35.78H39.63V36.928H36.83V46ZM42.902 46V35.78H44.162V40.148H47.438V35.78H48.698V46H47.438V41.296H44.162V46ZM52.6 46V35.78H58.48V36.928H53.846V40.092H57.99V41.212H53.846V44.852H58.48V46ZM71.408 46V35.78H73.27L74.572 40.204L75.93 35.78H77.792V46H76.574V41.17Q76.574 40.484 76.595 39.595Q76.616 38.706 76.658 37.796Q76.7 36.886 76.756 36.158L75.104 41.436H74.012L72.43 36.284Q72.542 37.32 72.584 38.552Q72.626 39.784 72.626 41.17V46ZM81.4 46V35.78H87.28V36.928H82.646V40.092H86.79V41.212H82.646V44.852H87.28V46ZM93.17 46V36.928H90.37V35.78H97.23V36.928H94.43V46ZM100.502 46V35.78H101.762V40.148H105.038V35.78H106.298V46H105.038V41.296H101.762V46ZM113 46.14Q111.628 46.14 110.83 45.342Q110.032 44.544 110.032 43.06V38.72Q110.032 37.236 110.83 36.438Q111.628 35.64 113 35.64Q114.372 35.64 115.17 36.438Q115.968 37.236 115.968 38.706V43.06Q115.968 44.544 115.17 45.342Q114.372 46.14 113 46.14ZM113 45.006Q113.826 45.006 114.267 44.537Q114.708 44.068 114.708 43.2V38.58Q114.708 37.712 114.267 37.243Q113.826 36.774 113 36.774Q112.188 36.774 111.74 37.243Q111.292 37.712 111.292 38.58V43.2Q111.292 44.068 111.74 44.537Q112.188 45.006 113 45.006ZM119.688 46V35.78H122.334Q123.328 35.78 124.049 36.158Q124.77 36.536 125.169 37.222Q125.568 37.908 125.568 38.846V42.92Q125.568 43.858 125.169 44.551Q124.77 45.244 124.049 45.622Q123.328 46 122.334 46ZM120.948 44.88H122.334Q123.258 44.88 123.783 44.362Q124.308 43.844 124.308 42.92V38.846Q124.308 37.936 123.783 37.418Q123.258 36.9 122.334 36.9H120.948ZM132.2 46.14Q130.828 46.14 130.03 45.342Q129.232 44.544 129.232 43.06V38.72Q129.232 37.236 130.03 36.438Q130.828 35.64 132.2 35.64Q133.572 35.64 134.37 36.438Q135.168 37.236 135.168 38.706V43.06Q135.168 44.544 134.37 45.342Q133.572 46.14 132.2 46.14ZM132.2 45.006Q133.026 45.006 133.467 44.537Q133.908 44.068 133.908 43.2V38.58Q133.908 37.712 133.467 37.243Q133.026 36.774 132.2 36.774Q131.388 36.774 130.94 37.243Q130.492 37.712 130.492 38.58V43.2Q130.492 44.068 130.94 44.537Q131.388 45.006 132.2 45.006ZM139.42 46V35.78H140.68V44.852H145.3V46ZM151.4 46.14Q150.028 46.14 149.23 45.342Q148.432 44.544 148.432 43.06V38.72Q148.432 37.236 149.23 36.438Q150.028 35.64 151.4 35.64Q152.772 35.64 153.57 36.438Q154.368 37.236 154.368 38.706V43.06Q154.368 44.544 153.57 45.342Q152.772 46.14 151.4 46.14ZM151.4 45.006Q152.226 45.006 152.667 44.537Q153.108 44.068 153.108 43.2V38.58Q153.108 37.712 152.667 37.243Q152.226 36.774 151.4 36.774Q150.588 36.774 150.14 37.243Q149.692 37.712 149.692 38.58V43.2Q149.692 44.068 150.14 44.537Q150.588 45.006 151.4 45.006ZM161.056 46.14Q159.656 46.14 158.844 45.356Q158.032 44.572 158.032 43.2V38.58Q158.032 37.208 158.844 36.424Q159.656 35.64 161.056 35.64Q162.428 35.64 163.24 36.431Q164.052 37.222 164.052 38.58H162.792Q162.792 37.712 162.337 37.243Q161.882 36.774 161.056 36.774Q160.23 36.774 159.761 37.236Q159.292 37.698 159.292 38.566V43.2Q159.292 44.068 159.761 44.544Q160.23 45.02 161.056 45.02Q161.882 45.02 162.337 44.544Q162.792 44.068 162.792 43.2V41.8H160.72V40.652H164.052V43.2Q164.052 44.558 163.24 45.349Q162.428 46.14 161.056 46.14ZM169.97 46V42.178L166.89 35.78H168.234L170.222 39.98Q170.39 40.33 170.488 40.575Q170.586 40.82 170.614 40.932Q170.642 40.82 170.747 40.575Q170.852 40.33 171.02 39.98L173.008 35.78H174.31L171.23 42.178V46Z" aria-label="THE METHODOLOGY" role="img" /><path fill="#eff4ff" d="M32.612 89 38.56 67.3H45.061L51.009 89H47.168L45.87 84.052H37.751L36.454 89ZM38.642 80.618H44.98L42.073 69.629H41.548ZM68.1 89.434Q65.142 89.434 63.217 88.132Q61.293 86.83 60.884 84.309L64.171 83.482Q64.393 84.665 64.948 85.342Q65.503 86.019 66.322 86.306Q67.142 86.594 68.1 86.594Q69.551 86.594 70.286 86.065Q71.021 85.536 71.021 84.714Q71.021 83.887 70.323 83.475Q69.624 83.064 68.189 82.805L67.224 82.633Q65.644 82.334 64.344 81.797Q63.043 81.26 62.262 80.315Q61.48 79.371 61.48 77.89Q61.48 75.655 63.13 74.45Q64.779 73.244 67.475 73.244Q70.048 73.244 71.728 74.394Q73.409 75.544 73.914 77.463L70.618 78.449Q70.359 77.163 69.529 76.623Q68.699 76.084 67.475 76.084Q66.256 76.084 65.591 76.517Q64.926 76.951 64.926 77.736Q64.926 78.567 65.6 78.961Q66.274 79.356 67.426 79.558L68.392 79.729Q70.095 80.029 71.476 80.535Q72.856 81.041 73.662 81.973Q74.467 82.905 74.467 84.484Q74.467 86.853 72.74 88.144Q71.013 89.434 68.1 89.434ZM83.865 89Q82.4 89 81.514 88.111Q80.628 87.223 80.628 85.723V76.631H76.611V73.678H80.628V68.752H84.176V73.678H88.577V76.631H84.176V85.117Q84.176 86.047 85.055 86.047H88.129V89ZM92.219 89V73.678H95.705V75.441H96.23Q96.588 74.495 97.389 74.056Q98.19 73.616 99.326 73.616H101.17V76.784H99.237Q97.711 76.784 96.739 77.605Q95.767 78.425 95.767 80.139V89ZM110.197 89.259Q108.431 89.259 107.077 88.462Q105.723 87.665 104.966 86.221Q104.208 84.778 104.208 82.854V73.678H107.756V82.577Q107.756 84.438 108.677 85.346Q109.597 86.255 111.265 86.255Q113.155 86.255 114.245 85.002Q115.334 83.749 115.334 81.441V73.678H118.882V89H115.396V86.849H114.871Q114.466 87.7 113.4 88.48Q112.333 89.259 110.197 89.259ZM130.581 89.434Q128.354 89.434 126.557 88.501Q124.76 87.569 123.717 85.802Q122.673 84.035 122.673 81.545V81.133Q122.673 78.638 123.717 76.874Q124.76 75.11 126.557 74.177Q128.354 73.244 130.581 73.244Q132.776 73.244 134.344 74.027Q135.911 74.811 136.866 76.154Q137.821 77.497 138.115 79.158L134.674 79.888Q134.545 78.91 134.078 78.119Q133.612 77.329 132.764 76.865Q131.917 76.402 130.658 76.402Q129.398 76.402 128.39 76.957Q127.382 77.511 126.802 78.584Q126.221 79.657 126.221 81.19V81.489Q126.221 83.022 126.802 84.094Q127.382 85.167 128.39 85.722Q129.398 86.277 130.658 86.277Q132.549 86.277 133.532 85.297Q134.514 84.317 134.773 82.764L138.213 83.571Q137.832 85.182 136.871 86.525Q135.911 87.868 134.344 88.651Q132.776 89.434 130.581 89.434ZM147.49 89Q146.025 89 145.139 88.111Q144.253 87.223 144.253 85.723V76.631H140.236V73.678H144.253V68.752H147.801V73.678H152.202V76.631H147.801V85.117Q147.801 86.047 148.68 86.047H151.754V89ZM161.692 89.259Q159.927 89.259 158.573 88.462Q157.219 87.665 156.462 86.221Q155.704 84.778 155.704 82.854V73.678H159.252V82.577Q159.252 84.438 160.172 85.346Q161.093 86.255 162.76 86.255Q164.651 86.255 165.74 85.002Q166.83 83.749 166.83 81.441V73.678H170.378V89H166.892V86.849H166.366Q165.962 87.7 164.895 88.48Q163.829 89.259 161.692 89.259ZM174.913 89V73.678H178.399V75.441H178.925Q179.282 74.495 180.083 74.056Q180.884 73.616 182.02 73.616H183.864V76.784H181.931Q180.405 76.784 179.433 77.605Q178.461 78.425 178.461 80.139V89ZM194.038 89.434Q191.738 89.434 189.992 88.457Q188.246 87.481 187.272 85.701Q186.299 83.921 186.299 81.525V81.153Q186.299 78.751 187.26 76.974Q188.221 75.197 189.948 74.221Q191.676 73.244 193.949 73.244Q196.185 73.244 197.85 74.23Q199.516 75.216 200.446 76.977Q201.376 78.737 201.376 81.083V82.356H189.898Q189.965 84.154 191.171 85.241Q192.376 86.328 194.14 86.328Q195.864 86.328 196.707 85.571Q197.55 84.815 197.991 83.855L200.918 85.366Q200.479 86.21 199.657 87.161Q198.836 88.112 197.483 88.773Q196.13 89.434 194.038 89.434ZM189.929 79.67H197.772Q197.648 78.141 196.613 77.246Q195.578 76.35 193.923 76.35Q192.223 76.35 191.195 77.246Q190.167 78.141 189.929 79.67ZM211.298 89.434Q209.436 89.434 207.832 88.514Q206.227 87.594 205.263 85.83Q204.3 84.066 204.3 81.576V81.102Q204.3 78.613 205.261 76.848Q206.222 75.084 207.816 74.164Q209.411 73.244 211.298 73.244Q212.742 73.244 213.722 73.591Q214.703 73.939 215.317 74.47Q215.93 75.001 216.256 75.597H216.782V67.3H220.33V89H216.844V86.983H216.318Q215.77 87.916 214.62 88.675Q213.471 89.434 211.298 89.434ZM212.346 86.328Q214.279 86.328 215.556 85.081Q216.833 83.835 216.833 81.489V81.19Q216.833 78.844 215.569 77.597Q214.305 76.35 212.346 76.35Q210.417 76.35 209.138 77.597Q207.858 78.844 207.858 81.19V81.489Q207.858 83.835 209.138 85.081Q210.417 86.328 212.346 86.328ZM237.508 89.434Q235.875 89.434 234.576 88.866Q233.277 88.298 232.52 87.205Q231.763 86.113 231.763 84.548Q231.763 82.978 232.52 81.922Q233.277 80.866 234.612 80.332Q235.947 79.798 237.65 79.798H242.094V78.87Q242.094 77.655 241.347 76.9Q240.6 76.146 239.02 76.146Q237.47 76.146 236.679 76.867Q235.887 77.587 235.637 78.744L232.356 77.655Q232.728 76.45 233.547 75.457Q234.366 74.464 235.737 73.854Q237.108 73.244 239.071 73.244Q242.076 73.244 243.808 74.758Q245.54 76.271 245.54 79.116V85.128Q245.54 86.058 246.408 86.058H247.686V89H245.19Q244.076 89 243.364 88.439Q242.653 87.879 242.653 86.938V86.874H242.113Q241.94 87.3 241.47 87.913Q241.001 88.526 240.055 88.98Q239.109 89.434 237.508 89.434ZM238.092 86.532Q239.865 86.532 240.98 85.526Q242.094 84.519 242.094 82.805V82.484H237.886Q236.709 82.484 236.01 82.989Q235.311 83.495 235.311 84.441Q235.311 85.386 236.041 85.959Q236.771 86.532 238.092 86.532ZM250.657 95.2V73.678H254.143V75.696H254.668Q255.217 74.737 256.379 73.991Q257.541 73.244 259.689 73.244Q261.576 73.244 263.168 74.164Q264.76 75.084 265.723 76.846Q266.687 78.607 266.687 81.102V81.576Q266.687 84.066 265.726 85.83Q264.765 87.594 263.173 88.514Q261.581 89.434 259.689 89.434Q258.25 89.434 257.267 89.087Q256.283 88.74 255.683 88.193Q255.082 87.646 254.73 87.081H254.205V95.2ZM258.641 86.328Q260.6 86.328 261.864 85.081Q263.128 83.835 263.128 81.489V81.19Q263.128 78.844 261.851 77.597Q260.575 76.35 258.641 76.35Q256.713 76.35 255.433 77.597Q254.154 78.844 254.154 81.19V81.489Q254.154 83.835 255.433 85.081Q256.713 86.328 258.641 86.328ZM270.478 95.2V73.678H273.964V75.696H274.49Q275.038 74.737 276.201 73.991Q277.363 73.244 279.51 73.244Q281.397 73.244 282.989 74.164Q284.581 75.084 285.545 76.846Q286.508 78.607 286.508 81.102V81.576Q286.508 84.066 285.547 85.83Q284.586 87.594 282.995 88.514Q281.403 89.434 279.51 89.434Q278.072 89.434 277.088 89.087Q276.105 88.74 275.504 88.193Q274.904 87.646 274.552 87.081H274.026V95.2ZM278.462 86.328Q280.422 86.328 281.686 85.081Q282.95 83.835 282.95 81.489V81.19Q282.95 78.844 281.673 77.597Q280.396 76.35 278.462 76.35Q276.534 76.35 275.255 77.597Q273.975 78.844 273.975 81.19V81.489Q273.975 83.835 275.255 85.081Q276.534 86.328 278.462 86.328ZM290.3 89V73.678H293.786V75.441H294.311Q294.668 74.495 295.47 74.056Q296.271 73.616 297.407 73.616H299.25V76.784H297.317Q295.791 76.784 294.82 77.605Q293.848 78.425 293.848 80.139V89ZM309.669 89.434Q307.375 89.434 305.565 88.496Q303.755 87.558 302.72 85.793Q301.685 84.029 301.685 81.576V81.102Q301.685 78.649 302.72 76.885Q303.755 75.121 305.565 74.182Q307.375 73.244 309.669 73.244Q311.963 73.244 313.773 74.182Q315.583 75.121 316.618 76.885Q317.653 78.649 317.653 81.102V81.576Q317.653 84.029 316.618 85.793Q315.583 87.558 313.773 88.496Q311.963 89.434 309.669 89.434ZM309.669 86.277Q311.619 86.277 312.862 85.022Q314.105 83.767 314.105 81.489V81.19Q314.105 78.911 312.875 77.656Q311.645 76.402 309.669 76.402Q307.725 76.402 306.479 77.656Q305.233 78.911 305.233 81.19V81.489Q305.233 83.767 306.479 85.022Q307.725 86.277 309.669 86.277ZM326.192 89.434Q324.559 89.434 323.26 88.866Q321.961 88.298 321.204 87.205Q320.447 86.113 320.447 84.548Q320.447 82.978 321.204 81.922Q321.961 80.866 323.296 80.332Q324.631 79.798 326.334 79.798H330.778V78.87Q330.778 77.655 330.031 76.9Q329.284 76.146 327.704 76.146Q326.154 76.146 325.363 76.867Q324.571 77.587 324.321 78.744L321.04 77.655Q321.412 76.45 322.231 75.457Q323.05 74.464 324.421 73.854Q325.792 73.244 327.755 73.244Q330.76 73.244 332.492 74.758Q334.224 76.271 334.224 79.116V85.128Q334.224 86.058 335.092 86.058H336.37V89H333.874Q332.76 89 332.048 88.439Q331.337 87.879 331.337 86.938V86.874H330.797Q330.624 87.3 330.155 87.913Q329.685 88.526 328.739 88.98Q327.793 89.434 326.192 89.434ZM326.776 86.532Q328.549 86.532 329.664 85.526Q330.778 84.519 330.778 82.805V82.484H326.57Q325.393 82.484 324.694 82.989Q323.995 83.495 323.995 84.441Q323.995 85.386 324.725 85.959Q325.455 86.532 326.776 86.532ZM346.504 89.434Q344.278 89.434 342.481 88.501Q340.683 87.569 339.64 85.802Q338.597 84.035 338.597 81.545V81.133Q338.597 78.638 339.64 76.874Q340.683 75.11 342.481 74.177Q344.278 73.244 346.504 73.244Q348.7 73.244 350.267 74.027Q351.835 74.811 352.79 76.154Q353.744 77.497 354.038 79.158L350.598 79.888Q350.468 78.91 350.002 78.119Q349.535 77.329 348.688 76.865Q347.84 76.402 346.581 76.402Q345.322 76.402 344.314 76.957Q343.306 77.511 342.725 78.584Q342.145 79.657 342.145 81.19V81.489Q342.145 83.022 342.725 84.094Q343.306 85.167 344.314 85.722Q345.322 86.277 346.581 86.277Q348.473 86.277 349.455 85.297Q350.437 84.317 350.696 82.764L354.137 83.571Q353.755 85.182 352.795 86.525Q351.835 87.868 350.267 88.651Q348.7 89.434 346.504 89.434ZM357.599 89V67.3H361.147V75.699H361.673Q361.942 75.16 362.494 74.634Q363.045 74.108 363.961 73.767Q364.877 73.425 366.285 73.425Q368.056 73.425 369.407 74.222Q370.758 75.019 371.515 76.447Q372.273 77.875 372.273 79.824V89H368.725V80.101Q368.725 78.235 367.805 77.332Q366.884 76.429 365.217 76.429Q363.326 76.429 362.237 77.679Q361.147 78.93 361.147 81.237V89Z" aria-label="A structured approach" role="img" /><path fill="#b5a0f9" d="M750.775 47 752.96 38.605H754.352L756.525 47H755.479L754.927 44.769H752.385L751.833 47ZM752.592 43.895H754.708L754.064 41.307Q753.88 40.572 753.776 40.077Q753.673 39.583 753.65 39.433Q753.627 39.583 753.524 40.077Q753.42 40.572 753.236 41.296ZM758.935 47V38.605H760.315L762.88 45.792Q762.857 45.505 762.828 45.085Q762.799 44.666 762.782 44.2Q762.765 43.734 762.765 43.32V38.605H763.765V47H762.385L759.832 39.812Q759.855 40.088 759.878 40.508Q759.901 40.928 759.918 41.394Q759.936 41.859 759.936 42.285V47ZM766.175 47 768.36 38.605H769.752L771.925 47H770.879L770.327 44.769H767.785L767.233 47ZM767.992 43.895H770.108L769.464 41.307Q769.28 40.572 769.177 40.077Q769.073 39.583 769.05 39.433Q769.027 39.583 768.924 40.077Q768.82 40.572 768.636 41.296ZM774.795 47V38.605H775.83V46.057H779.625V47ZM783.933 47V43.861L781.403 38.605H782.507L784.14 42.055Q784.278 42.343 784.358 42.544Q784.439 42.745 784.462 42.837Q784.485 42.745 784.571 42.544Q784.657 42.343 784.795 42.055L786.428 38.605H787.498L784.968 43.861V47ZM789.678 47V45.965L793.461 39.548H789.735V38.605H794.508V39.64L790.724 46.057H794.623V47ZM797.55 47V38.605H802.38V39.548H798.574V42.147H801.978V43.067H798.574V46.057H802.38V47ZM812.663 48.265 816.745 37.455H817.838L813.755 48.265ZM829.937 47 827.775 38.605H828.833L830.271 44.321Q830.42 44.919 830.518 45.425Q830.616 45.931 830.662 46.195Q830.708 45.931 830.817 45.419Q830.926 44.907 831.076 44.309L832.456 38.605H833.525L831.352 47ZM835.475 47 837.66 38.605H839.052L841.225 47H840.179L839.627 44.769H837.085L836.533 47ZM837.292 43.895H839.408L838.764 41.307Q838.58 40.572 838.477 40.077Q838.373 39.583 838.35 39.433Q838.327 39.583 838.224 40.077Q838.12 40.572 837.936 41.296ZM844.095 47V38.605H845.13V46.057H848.925V47ZM851.508 47V46.057H853.221V39.548H851.508V38.605H855.993V39.548H854.279V46.057H855.993V47ZM859.058 47V38.605H861.232Q862.048 38.605 862.64 38.916Q863.233 39.226 863.56 39.79Q863.888 40.353 863.888 41.123V44.47Q863.888 45.24 863.56 45.81Q863.233 46.379 862.64 46.689Q862.048 47 861.232 47ZM860.093 46.08H861.232Q861.991 46.08 862.422 45.654Q862.853 45.229 862.853 44.47V41.123Q862.853 40.376 862.422 39.95Q861.991 39.525 861.232 39.525H860.093ZM866.275 47 868.46 38.605H869.852L872.025 47H870.979L870.427 44.769H867.885L867.333 47ZM868.092 43.895H870.208L869.564 41.307Q869.38 40.572 869.277 40.077Q869.173 39.583 869.15 39.433Q869.127 39.583 869.024 40.077Q868.92 40.572 868.736 41.296ZM876.333 47V39.548H874.033V38.605H879.668V39.548H877.368V47ZM882.25 47V38.605H887.08V39.548H883.274V42.147H886.678V43.067H883.274V46.057H887.08V47ZM897.363 48.265 901.445 37.455H902.538L898.455 48.265ZM912.958 47V38.605H915.132Q915.948 38.605 916.54 38.916Q917.133 39.226 917.46 39.79Q917.788 40.353 917.788 41.123V44.47Q917.788 45.24 917.46 45.81Q917.133 46.379 916.54 46.689Q915.948 47 915.132 47ZM913.993 46.08H915.132Q915.891 46.08 916.322 45.654Q916.753 45.229 916.753 44.47V41.123Q916.753 40.376 916.322 39.95Q915.891 39.525 915.132 39.525H913.993ZM920.75 47V38.605H925.58V39.548H921.774V42.147H925.178V43.067H921.774V46.057H925.58V47ZM928.795 47V38.605H929.83V46.057H933.625V47ZM936.208 47V46.057H937.921V39.548H936.208V38.605H940.693V39.548H938.979V46.057H940.693V47ZM945.437 47 943.275 38.605H944.333L945.771 44.321Q945.92 44.919 946.018 45.425Q946.116 45.931 946.162 46.195Q946.208 45.931 946.317 45.419Q946.426 44.907 946.576 44.309L947.956 38.605H949.025L946.852 47ZM951.55 47V38.605H956.38V39.548H952.574V42.147H955.978V43.067H952.574V46.057H956.38V47ZM959.17 47V38.605H961.757Q962.505 38.605 963.068 38.91Q963.632 39.215 963.942 39.755Q964.253 40.296 964.253 41.02Q964.253 41.871 963.816 42.481Q963.379 43.09 962.654 43.331L964.368 47H963.229L961.585 43.435H960.193V47ZM960.193 42.504H961.757Q962.401 42.504 962.792 42.095Q963.183 41.687 963.183 41.02Q963.183 40.341 962.792 39.939Q962.401 39.537 961.757 39.537H960.193Z" aria-label="ANALYZE / VALIDATE / DELIVER" role="img" /><rect x="32" y="116" width="176" height="140" rx="15" fill="url(#card)" stroke="#29334d" /><rect x="222" y="116" width="176" height="140" rx="15" fill="url(#card)" stroke="#29334d" /><rect x="412" y="116" width="176" height="140" rx="15" fill="url(#card)" stroke="#29334d" /><rect x="602" y="116" width="176" height="140" rx="15" fill="url(#card)" stroke="#29334d" /><rect x="792" y="116" width="176" height="140" rx="15" fill="url(#card)" stroke="#29334d" /><path d="M120 157H880" stroke="#364464" stroke-width="2" /><path d="M120 157H880" stroke="url(#spectrum)" stroke-width="3" class="trace" /><circle cx="120" cy="157" r="26" fill="#111a2c" stroke="#60e7f9" stroke-opacity=".75" /><circle cx="120" cy="157" r="32" fill="none" stroke="#60e7f9" stroke-opacity=".2" stroke-dasharray="2 8" /><path fill="#60e7f9" d="M114.95 163.16Q113.334 163.16 112.382 162.224Q111.43 161.288 111.43 159.72V154.6Q111.43 153.032 112.382 152.096Q113.334 151.16 114.95 151.16Q116.566 151.16 117.518 152.096Q118.47 153.032 118.47 154.6V159.72Q118.47 160.76 118.038 161.536Q117.606 162.312 116.814 162.736Q116.022 163.16 114.95 163.16ZM114.95 161.928Q115.91 161.928 116.494 161.312Q117.078 160.696 117.078 159.72V154.6Q117.078 153.624 116.494 153.008Q115.91 152.392 114.95 152.392Q113.99 152.392 113.406 153.008Q112.822 153.624 112.822 154.6V159.72Q112.822 160.696 113.406 161.312Q113.99 161.928 114.95 161.928ZM114.95 158.04Q114.518 158.04 114.254 157.8Q113.99 157.56 113.99 157.112Q113.99 156.68 114.254 156.448Q114.518 156.216 114.95 156.216Q115.382 156.216 115.646 156.448Q115.91 156.68 115.91 157.112Q115.91 157.56 115.646 157.8Q115.382 158.04 114.95 158.04ZM121.69 163V161.688H124.858V152.568L121.69 154.936V153.288L124.33 151.32H126.298V161.688H128.89V163Z" aria-label="01" role="img" /><path fill="#f2f5ff" d="M95.899 212.28Q94.3 212.28 93.071 211.709Q91.841 211.137 91.145 210.056Q90.448 208.974 90.448 207.426V206.897H92.817V207.426Q92.817 208.805 93.655 209.487Q94.493 210.17 95.899 210.17Q97.326 210.17 98.043 209.583Q98.76 208.995 98.76 208.082Q98.76 207.457 98.416 207.07Q98.072 206.684 97.424 206.44Q96.777 206.196 95.867 205.989L95.263 205.851Q93.876 205.534 92.868 205.051Q91.861 204.568 91.316 203.78Q90.772 202.993 90.772 201.737Q90.772 200.482 91.378 199.584Q91.985 198.686 93.082 198.203Q94.18 197.72 95.659 197.72Q97.138 197.72 98.298 198.225Q99.457 198.73 100.124 199.726Q100.79 200.722 100.79 202.221V202.88H98.421V202.221Q98.421 201.368 98.081 200.845Q97.741 200.322 97.12 200.076Q96.498 199.83 95.659 199.83Q94.414 199.83 93.777 200.319Q93.141 200.807 93.141 201.671Q93.141 202.247 93.432 202.631Q93.723 203.016 94.292 203.266Q94.862 203.517 95.723 203.707L96.327 203.846Q97.757 204.155 98.833 204.643Q99.91 205.131 100.52 205.939Q101.129 206.746 101.129 208.016Q101.129 209.285 100.486 210.243Q99.843 211.201 98.669 211.74Q97.495 212.28 95.899 212.28ZM107.938 212.28Q106.501 212.28 105.342 211.678Q104.182 211.077 103.509 209.937Q102.836 208.797 102.836 207.19V206.924Q102.836 205.315 103.509 204.177Q104.182 203.038 105.342 202.437Q106.501 201.835 107.938 201.835Q109.354 201.835 110.365 202.34Q111.377 202.845 111.993 203.712Q112.609 204.578 112.798 205.65L110.578 206.122Q110.495 205.49 110.194 204.98Q109.893 204.471 109.346 204.171Q108.8 203.872 107.987 203.872Q107.175 203.872 106.524 204.23Q105.874 204.588 105.5 205.28Q105.125 205.972 105.125 206.961V207.154Q105.125 208.143 105.5 208.835Q105.874 209.527 106.524 209.885Q107.175 210.243 107.987 210.243Q109.207 210.243 109.841 209.611Q110.475 208.979 110.642 207.977L112.862 208.497Q112.616 209.537 111.996 210.403Q111.377 211.27 110.365 211.775Q109.354 212.28 107.938 212.28ZM119.767 212.28Q118.287 212.28 117.119 211.675Q115.951 211.07 115.283 209.931Q114.615 208.793 114.615 207.21V206.904Q114.615 205.322 115.283 204.184Q115.951 203.045 117.119 202.44Q118.287 201.835 119.767 201.835Q121.247 201.835 122.414 202.44Q123.582 203.045 124.25 204.184Q124.918 205.322 124.918 206.904V207.21Q124.918 208.793 124.25 209.931Q123.582 211.07 122.414 211.675Q121.247 212.28 119.767 212.28ZM119.767 210.243Q121.024 210.243 121.826 209.433Q122.628 208.624 122.628 207.154V206.961Q122.628 205.491 121.835 204.682Q121.041 203.872 119.767 203.872Q118.512 203.872 117.708 204.682Q116.905 205.491 116.905 206.961V207.154Q116.905 208.624 117.708 209.433Q118.512 210.243 119.767 210.243ZM127.363 216V202.115H129.613V203.416H129.952Q130.306 202.798 131.055 202.316Q131.805 201.835 133.191 201.835Q134.408 201.835 135.435 202.428Q136.462 203.022 137.084 204.158Q137.706 205.295 137.706 206.904V207.21Q137.706 208.817 137.086 209.955Q136.466 211.093 135.439 211.687Q134.412 212.28 133.191 212.28Q132.263 212.28 131.628 212.056Q130.994 211.832 130.606 211.479Q130.219 211.127 129.992 210.762H129.653V216ZM132.514 210.276Q133.778 210.276 134.594 209.472Q135.409 208.667 135.409 207.154V206.961Q135.409 205.448 134.586 204.643Q133.762 203.839 132.514 203.839Q131.271 203.839 130.445 204.643Q129.62 205.448 129.62 206.961V207.154Q129.62 208.667 130.445 209.472Q131.271 210.276 132.514 210.276ZM144.664 212.28Q143.181 212.28 142.054 211.65Q140.928 211.02 140.3 209.872Q139.671 208.723 139.671 207.177V206.937Q139.671 205.388 140.291 204.241Q140.911 203.095 142.026 202.465Q143.141 201.835 144.607 201.835Q146.049 201.835 147.124 202.471Q148.199 203.107 148.799 204.243Q149.399 205.379 149.399 206.892V207.714H141.994Q142.037 208.873 142.815 209.575Q143.593 210.276 144.73 210.276Q145.843 210.276 146.387 209.788Q146.93 209.3 147.215 208.68L149.103 209.656Q148.82 210.2 148.29 210.813Q147.76 211.427 146.887 211.853Q146.014 212.28 144.664 212.28ZM142.014 205.98H147.073Q146.993 204.995 146.326 204.417Q145.658 203.839 144.59 203.839Q143.493 203.839 142.831 204.417Q142.168 204.995 142.014 205.98Z" aria-label="Scope" role="img" /><path fill="#a8b8d5" d="M64.408 238V237.05H65.649V230.06H64.408V229.11H67.867Q69.622 229.11 70.583 230Q71.543 230.89 71.543 232.735V234.384Q71.543 236.229 70.583 237.114Q69.622 238 67.867 238ZM66.712 237.035H67.875Q69.161 237.035 69.821 236.402Q70.48 235.77 70.48 234.426V232.693Q70.48 231.336 69.821 230.71Q69.161 230.084 67.875 230.084H66.712ZM76.132 238.178Q75.183 238.178 74.474 237.778Q73.766 237.378 73.37 236.652Q72.975 235.926 72.975 234.972V234.819Q72.975 233.856 73.368 233.135Q73.762 232.413 74.46 232.013Q75.157 231.613 76.061 231.613Q76.943 231.613 77.615 231.99Q78.288 232.367 78.669 233.061Q79.05 233.755 79.05 234.702V235.149H73.987Q74.021 236.157 74.627 236.722Q75.233 237.286 76.146 237.286Q76.955 237.286 77.385 236.922Q77.815 236.557 78.043 236.048L78.91 236.464Q78.723 236.857 78.386 237.253Q78.05 237.65 77.509 237.914Q76.968 238.178 76.132 238.178ZM74 234.334H78.028Q77.977 233.463 77.441 232.984Q76.905 232.505 76.057 232.505Q75.211 232.505 74.668 232.984Q74.125 233.463 74 234.334ZM82.018 238V232.661H80.112V231.791H82.018V230.208Q82.018 229.695 82.307 229.403Q82.595 229.11 83.127 229.11H84.688V229.98H83.397Q83.024 229.98 83.024 230.361V231.791H84.981V232.661H83.024V238ZM86.406 238V231.791H87.411V238ZM86.909 230.82Q86.585 230.82 86.363 230.604Q86.141 230.387 86.141 230.056Q86.141 229.716 86.363 229.505Q86.585 229.293 86.909 229.293Q87.245 229.293 87.46 229.505Q87.676 229.716 87.676 230.056Q87.676 230.387 87.46 230.604Q87.245 230.82 86.909 230.82ZM89.514 238V231.791H90.493V232.842H90.668Q90.874 232.394 91.366 232.033Q91.857 231.671 92.807 231.671Q93.498 231.671 94.055 231.967Q94.612 232.263 94.94 232.836Q95.267 233.408 95.267 234.241V238H94.262V234.314Q94.262 233.386 93.8 232.967Q93.338 232.549 92.546 232.549Q91.656 232.549 91.087 233.137Q90.519 233.725 90.519 234.881V238ZM100.153 238.178Q99.204 238.178 98.496 237.778Q97.787 237.378 97.392 236.652Q96.996 235.926 96.996 234.972V234.819Q96.996 233.856 97.39 233.135Q97.783 232.413 98.481 232.013Q99.179 231.613 100.083 231.613Q100.965 231.613 101.637 231.99Q102.309 232.367 102.69 233.061Q103.071 233.755 103.071 234.702V235.149H98.008Q98.043 236.157 98.649 236.722Q99.255 237.286 100.168 237.286Q100.976 237.286 101.406 236.922Q101.837 236.557 102.065 236.048L102.931 236.464Q102.744 236.857 102.408 237.253Q102.071 237.65 101.53 237.914Q100.99 238.178 100.153 238.178ZM98.021 234.334H102.05Q101.999 233.463 101.463 232.984Q100.927 232.505 100.079 232.505Q99.233 232.505 98.689 232.984Q98.146 233.463 98.021 234.334ZM111.522 238.178Q110.554 238.178 110.02 237.809Q109.486 237.44 109.234 236.976H109.06V238H108.08V229.11H109.085V232.767H109.26Q109.417 232.476 109.697 232.214Q109.977 231.952 110.428 231.783Q110.878 231.613 111.522 231.613Q112.338 231.613 113.004 231.997Q113.669 232.381 114.063 233.1Q114.457 233.819 114.457 234.812V234.979Q114.457 235.972 114.059 236.691Q113.66 237.41 112.995 237.794Q112.329 238.178 111.522 238.178ZM111.256 237.286Q112.218 237.286 112.826 236.67Q113.434 236.054 113.434 234.95V234.841Q113.434 233.737 112.828 233.121Q112.221 232.505 111.256 232.505Q110.303 232.505 109.69 233.121Q109.078 233.737 109.078 234.841V234.95Q109.078 236.054 109.69 236.67Q110.303 237.286 111.256 237.286ZM119.126 238.178Q118.186 238.178 117.468 237.783Q116.75 237.389 116.35 236.669Q115.95 235.95 115.95 234.979V234.812Q115.95 233.841 116.35 233.122Q116.75 232.402 117.468 232.008Q118.186 231.613 119.126 231.613Q120.065 231.613 120.783 232.008Q121.501 232.402 121.901 233.122Q122.301 233.841 122.301 234.812V234.979Q122.301 235.95 121.901 236.669Q121.501 237.389 120.783 237.783Q120.065 238.178 119.126 238.178ZM119.126 237.278Q120.115 237.278 120.706 236.649Q121.296 236.019 121.296 234.95V234.841Q121.296 233.772 120.707 233.142Q120.118 232.513 119.126 232.513Q118.146 232.513 117.55 233.142Q116.955 233.772 116.955 234.841V234.95Q116.955 236.019 117.55 236.649Q118.146 237.278 119.126 237.278ZM126.482 238.12Q125.799 238.12 125.238 237.824Q124.676 237.528 124.349 236.953Q124.021 236.379 124.021 235.55V231.791H125.026V235.477Q125.026 236.396 125.488 236.819Q125.95 237.242 126.742 237.242Q127.632 237.242 128.201 236.654Q128.77 236.066 128.77 234.91V231.791H129.775V238H128.795V236.949H128.621Q128.414 237.393 127.923 237.756Q127.432 238.12 126.482 238.12ZM131.877 238V231.791H132.857V232.842H133.032Q133.238 232.394 133.729 232.033Q134.221 231.671 135.171 231.671Q135.862 231.671 136.419 231.967Q136.976 232.263 137.303 232.836Q137.631 233.408 137.631 234.241V238H136.626V234.314Q136.626 233.386 136.164 232.967Q135.702 232.549 134.91 232.549Q134.02 232.549 133.451 233.137Q132.882 233.725 132.882 234.881V238ZM142.295 238.178Q141.491 238.178 140.824 237.794Q140.156 237.41 139.758 236.691Q139.36 235.972 139.36 234.979V234.812Q139.36 233.819 139.753 233.1Q140.147 232.381 140.817 231.997Q141.488 231.613 142.295 231.613Q142.947 231.613 143.393 231.783Q143.839 231.952 144.121 232.214Q144.403 232.476 144.557 232.767H144.732V229.11H145.737V238H144.757V236.976H144.582Q144.33 237.44 143.798 237.809Q143.266 238.178 142.295 238.178ZM142.561 237.286Q143.523 237.286 144.131 236.67Q144.739 236.054 144.739 234.95V234.841Q144.739 233.737 144.133 233.121Q143.527 232.505 142.561 232.505Q141.608 232.505 140.995 233.121Q140.383 233.737 140.383 234.841V234.95Q140.383 236.054 140.995 236.67Q141.608 237.286 142.561 237.286ZM149.75 238.178Q149.095 238.178 148.566 237.952Q148.037 237.726 147.73 237.289Q147.424 236.851 147.424 236.231Q147.424 235.601 147.73 235.185Q148.037 234.77 148.567 234.561Q149.097 234.352 149.754 234.352H151.86V233.898Q151.86 233.237 151.472 232.856Q151.085 232.476 150.322 232.476Q149.572 232.476 149.149 232.839Q148.726 233.202 148.583 233.805L147.633 233.508Q147.785 232.981 148.117 232.554Q148.449 232.127 149.001 231.87Q149.552 231.613 150.329 231.613Q151.52 231.613 152.185 232.226Q152.85 232.84 152.85 233.958V236.767Q152.85 237.148 153.206 237.148H153.777V238H152.891Q152.475 238 152.224 237.767Q151.973 237.534 151.973 237.135V237.068H151.813Q151.681 237.311 151.445 237.572Q151.208 237.833 150.8 238.005Q150.392 238.178 149.75 238.178ZM149.867 237.315Q150.757 237.315 151.308 236.787Q151.86 236.259 151.86 235.312V235.167H149.796Q149.198 235.167 148.814 235.426Q148.429 235.684 148.429 236.207Q148.429 236.73 148.826 237.023Q149.224 237.315 149.867 237.315ZM155.144 238V231.791H156.123V232.547H156.298Q156.465 232.139 156.807 231.952Q157.148 231.766 157.716 231.766H158.45V232.683H157.645Q156.972 232.683 156.561 233.056Q156.149 233.43 156.149 234.22V238ZM159.93 238V231.791H160.935V238ZM160.432 230.82Q160.108 230.82 159.887 230.604Q159.665 230.387 159.665 230.056Q159.665 229.716 159.887 229.505Q160.108 229.293 160.432 229.293Q160.768 229.293 160.984 229.505Q161.199 229.716 161.199 230.056Q161.199 230.387 160.984 230.604Q160.768 230.82 160.432 230.82ZM165.889 238.178Q164.941 238.178 164.232 237.778Q163.523 237.378 163.128 236.652Q162.732 235.926 162.732 234.972V234.819Q162.732 233.856 163.126 233.135Q163.52 232.413 164.217 232.013Q164.915 231.613 165.819 231.613Q166.701 231.613 167.373 231.99Q168.045 232.367 168.426 233.061Q168.807 233.755 168.807 234.702V235.149H163.745Q163.779 236.157 164.385 236.722Q164.991 237.286 165.904 237.286Q166.712 237.286 167.143 236.922Q167.573 236.557 167.801 236.048L168.667 236.464Q168.481 236.857 168.144 237.253Q167.807 237.65 167.267 237.914Q166.726 238.178 165.889 238.178ZM163.758 234.334H167.786Q167.735 233.463 167.199 232.984Q166.663 232.505 165.815 232.505Q164.969 232.505 164.426 232.984Q163.882 233.463 163.758 234.334ZM173.053 238.178Q171.903 238.178 171.111 237.644Q170.319 237.111 170.145 235.949L171.104 235.739Q171.202 236.346 171.484 236.695Q171.765 237.044 172.176 237.192Q172.586 237.341 173.053 237.341Q173.757 237.341 174.163 237.063Q174.569 236.785 174.569 236.312Q174.569 235.831 174.185 235.631Q173.8 235.432 173.124 235.312L172.606 235.222Q172 235.113 171.508 234.9Q171.016 234.686 170.726 234.32Q170.436 233.953 170.436 233.394Q170.436 232.553 171.082 232.083Q171.727 231.613 172.79 231.613Q173.845 231.613 174.502 232.088Q175.16 232.562 175.34 233.423L174.404 233.664Q174.285 233.001 173.856 232.726Q173.428 232.45 172.79 232.45Q172.162 232.45 171.794 232.686Q171.427 232.921 171.427 233.372Q171.427 233.821 171.771 234.03Q172.115 234.239 172.709 234.343L173.227 234.433Q173.884 234.542 174.413 234.743Q174.941 234.943 175.25 235.308Q175.56 235.673 175.56 236.279Q175.56 237.188 174.883 237.683Q174.206 238.178 173.053 238.178Z" aria-label="Define boundaries" role="img" /><circle cx="310" cy="157" r="26" fill="#111a2c" stroke="#a78bfa" stroke-opacity=".75" /><circle cx="310" cy="157" r="32" fill="none" stroke="#a78bfa" stroke-opacity=".2" stroke-dasharray="2 8" /><path fill="#a78bfa" d="M304.95 163.16Q303.334 163.16 302.382 162.224Q301.43 161.288 301.43 159.72V154.6Q301.43 153.032 302.382 152.096Q303.334 151.16 304.95 151.16Q306.566 151.16 307.518 152.096Q308.47 153.032 308.47 154.6V159.72Q308.47 160.76 308.038 161.536Q307.606 162.312 306.814 162.736Q306.022 163.16 304.95 163.16ZM304.95 161.928Q305.91 161.928 306.494 161.312Q307.078 160.696 307.078 159.72V154.6Q307.078 153.624 306.494 153.008Q305.91 152.392 304.95 152.392Q303.99 152.392 303.406 153.008Q302.822 153.624 302.822 154.6V159.72Q302.822 160.696 303.406 161.312Q303.99 161.928 304.95 161.928ZM304.95 158.04Q304.518 158.04 304.254 157.8Q303.99 157.56 303.99 157.112Q303.99 156.68 304.254 156.448Q304.518 156.216 304.95 156.216Q305.382 156.216 305.646 156.448Q305.91 156.68 305.91 157.112Q305.91 157.56 305.646 157.8Q305.382 158.04 304.95 158.04ZM311.626 163V161.672L315.514 157.512Q316.362 156.616 316.714 155.912Q317.066 155.208 317.066 154.536Q317.066 153.576 316.514 153.008Q315.962 152.44 315.018 152.44Q314.042 152.44 313.474 153.024Q312.906 153.608 312.906 154.6H311.466Q311.514 153.016 312.474 152.088Q313.434 151.16 315.018 151.16Q316.634 151.16 317.586 152.072Q318.538 152.984 318.538 154.552Q318.538 155.384 318.082 156.312Q317.626 157.24 316.522 158.392L313.37 161.688H318.682V163Z" aria-label="02" role="img" /><path fill="#f2f5ff" d="M290.445 212V198H294.925L297.663 210.382H298.003L300.741 198H305.221V212H302.892V199.734H302.553L299.831 212H295.835L293.113 199.734H292.774V212ZM311.137 212.28Q310.083 212.28 309.245 211.913Q308.407 211.547 307.919 210.842Q307.43 210.137 307.43 209.128Q307.43 208.115 307.919 207.434Q308.407 206.752 309.268 206.408Q310.13 206.063 311.229 206.063H314.095V205.464Q314.095 204.681 313.613 204.194Q313.131 203.707 312.112 203.707Q311.113 203.707 310.602 204.172Q310.091 204.637 309.93 205.383L307.813 204.68Q308.053 203.903 308.581 203.262Q309.11 202.622 309.994 202.228Q310.879 201.835 312.145 201.835Q314.084 201.835 315.201 202.811Q316.319 203.788 316.319 205.623V209.502Q316.319 210.102 316.879 210.102H317.703V212H316.093Q315.374 212 314.915 211.638Q314.456 211.277 314.456 210.67V210.629H314.107Q313.996 210.903 313.693 211.299Q313.39 211.694 312.78 211.987Q312.17 212.28 311.137 212.28ZM311.514 210.408Q312.657 210.408 313.376 209.758Q314.095 209.109 314.095 208.003V207.796H311.381Q310.621 207.796 310.17 208.122Q309.72 208.449 309.72 209.058Q309.72 209.668 310.19 210.038Q310.661 210.408 311.514 210.408ZM319.62 216V202.115H321.869V203.416H322.208Q322.562 202.798 323.312 202.316Q324.062 201.835 325.447 201.835Q326.665 201.835 327.692 202.428Q328.719 203.022 329.34 204.158Q329.962 205.295 329.962 206.904V207.21Q329.962 208.817 329.342 209.955Q328.722 211.093 327.695 211.687Q326.668 212.28 325.447 212.28Q324.519 212.28 323.885 212.056Q323.25 211.832 322.863 211.479Q322.475 211.127 322.248 210.762H321.909V216ZM324.771 210.276Q326.035 210.276 326.85 209.472Q327.666 208.667 327.666 207.154V206.961Q327.666 205.448 326.842 204.643Q326.018 203.839 324.771 203.839Q323.527 203.839 322.702 204.643Q321.876 205.448 321.876 206.961V207.154Q321.876 208.667 322.702 209.472Q323.527 210.276 324.771 210.276Z" aria-label="Map" role="img" /><path fill="#a8b8d5" d="M246.717 238V237.05H247.958V230.06H246.717V229.11H250.177Q251.931 229.11 252.892 230Q253.852 230.89 253.852 232.735V234.384Q253.852 236.229 252.892 237.114Q251.931 238 250.177 238ZM249.021 237.035H250.184Q251.47 237.035 252.13 236.402Q252.789 235.77 252.789 234.426V232.693Q252.789 231.336 252.13 230.71Q251.47 230.084 250.184 230.084H249.021ZM255.589 238V231.791H256.594V238ZM256.091 230.82Q255.767 230.82 255.546 230.604Q255.324 230.387 255.324 230.056Q255.324 229.716 255.546 229.505Q255.767 229.293 256.091 229.293Q256.427 229.293 256.643 229.505Q256.858 229.716 256.858 230.056Q256.858 230.387 256.643 230.604Q256.427 230.82 256.091 230.82ZM261.195 238.178Q260.044 238.178 259.253 237.644Q258.461 237.111 258.286 235.949L259.246 235.739Q259.344 236.346 259.625 236.695Q259.907 237.044 260.317 237.192Q260.728 237.341 261.195 237.341Q261.898 237.341 262.305 237.063Q262.711 236.785 262.711 236.312Q262.711 235.831 262.326 235.631Q261.942 235.432 261.266 235.312L260.748 235.222Q260.141 235.113 259.649 234.9Q259.157 234.686 258.868 234.32Q258.578 233.953 258.578 233.394Q258.578 232.553 259.223 232.083Q259.869 231.613 260.932 231.613Q261.986 231.613 262.644 232.088Q263.302 232.562 263.482 233.423L262.546 233.664Q262.426 233.001 261.998 232.726Q261.57 232.45 260.932 232.45Q260.304 232.45 259.936 232.686Q259.569 232.921 259.569 233.372Q259.569 233.821 259.913 234.03Q260.257 234.239 260.851 234.343L261.369 234.433Q262.026 234.542 262.554 234.743Q263.083 234.943 263.392 235.308Q263.701 235.673 263.701 236.279Q263.701 237.188 263.025 237.683Q262.348 238.178 261.195 238.178ZM268.247 238.178Q267.342 238.178 266.626 237.792Q265.91 237.407 265.496 236.683Q265.082 235.959 265.082 234.966V234.825Q265.082 233.823 265.496 233.104Q265.91 232.384 266.626 231.999Q267.342 231.613 268.247 231.613Q269.14 231.613 269.765 231.944Q270.39 232.275 270.754 232.819Q271.118 233.362 271.218 233.988L270.237 234.192Q270.177 233.73 269.945 233.349Q269.713 232.967 269.294 232.74Q268.876 232.513 268.258 232.513Q267.64 232.513 267.149 232.794Q266.658 233.076 266.373 233.597Q266.087 234.118 266.087 234.841V234.95Q266.087 235.673 266.373 236.194Q266.658 236.715 267.149 236.997Q267.64 237.278 268.258 237.278Q269.189 237.278 269.677 236.796Q270.164 236.313 270.284 235.595L271.265 235.81Q271.136 236.429 270.763 236.972Q270.39 237.516 269.765 237.847Q269.14 238.178 268.247 238.178ZM275.854 238.178Q274.914 238.178 274.196 237.783Q273.478 237.389 273.078 236.669Q272.678 235.95 272.678 234.979V234.812Q272.678 233.841 273.078 233.122Q273.478 232.402 274.196 232.008Q274.914 231.613 275.854 231.613Q276.793 231.613 277.511 232.008Q278.229 232.402 278.629 233.122Q279.029 233.841 279.029 234.812V234.979Q279.029 235.95 278.629 236.669Q278.229 237.389 277.511 237.783Q276.793 238.178 275.854 238.178ZM275.854 237.278Q276.843 237.278 277.433 236.649Q278.024 236.019 278.024 234.95V234.841Q278.024 233.772 277.435 233.142Q276.846 232.513 275.854 232.513Q274.873 232.513 274.278 233.142Q273.683 233.772 273.683 234.841V234.95Q273.683 236.019 274.278 236.649Q274.873 237.278 275.854 237.278ZM282.4 238 280.177 231.791H281.248L283.114 237.246H283.289L285.155 231.791H286.226L284.003 238ZM290.531 238.178Q289.582 238.178 288.873 237.778Q288.165 237.378 287.769 236.652Q287.374 235.926 287.374 234.972V234.819Q287.374 233.856 287.767 233.135Q288.161 232.413 288.859 232.013Q289.556 231.613 290.46 231.613Q291.342 231.613 292.014 231.99Q292.687 232.367 293.068 233.061Q293.449 233.755 293.449 234.702V235.149H288.386Q288.421 236.157 289.027 236.722Q289.632 237.286 290.545 237.286Q291.354 237.286 291.784 236.922Q292.214 236.557 292.442 236.048L293.309 236.464Q293.122 236.857 292.785 237.253Q292.449 237.65 291.908 237.914Q291.367 238.178 290.531 238.178ZM288.399 234.334H292.427Q292.376 233.463 291.84 232.984Q291.304 232.505 290.456 232.505Q289.61 232.505 289.067 232.984Q288.524 233.463 288.399 234.334ZM295.196 238V231.791H296.175V232.547H296.35Q296.517 232.139 296.859 231.952Q297.2 231.766 297.767 231.766H298.502V232.683H297.697Q297.024 232.683 296.613 233.056Q296.201 233.43 296.201 234.22V238ZM305.53 238Q304.998 238 304.71 237.707Q304.422 237.415 304.422 236.902V232.661H302.558V231.791H304.422V229.583H305.427V231.791H307.461V232.661H305.427V236.749Q305.427 237.13 305.8 237.13H307.182V238ZM309.089 238V229.11H310.094V232.782H310.268Q310.406 232.507 310.662 232.254Q310.919 232.001 311.335 231.841Q311.751 231.68 312.382 231.68Q313.073 231.68 313.63 231.976Q314.187 232.272 314.515 232.84Q314.842 233.408 314.842 234.241V238H313.837V234.314Q313.837 233.386 313.375 232.972Q312.913 232.558 312.121 232.558Q311.231 232.558 310.662 233.141Q310.094 233.725 310.094 234.881V238ZM319.728 238.178Q318.779 238.178 318.071 237.778Q317.362 237.378 316.967 236.652Q316.571 235.926 316.571 234.972V234.819Q316.571 233.856 316.965 233.135Q317.358 232.413 318.056 232.013Q318.754 231.613 319.657 231.613Q320.539 231.613 321.212 231.99Q321.884 232.367 322.265 233.061Q322.646 233.755 322.646 234.702V235.149H317.583Q317.618 236.157 318.224 236.722Q318.83 237.286 319.743 237.286Q320.551 237.286 320.981 236.922Q321.411 236.557 321.64 236.048L322.506 236.464Q322.319 236.857 321.983 237.253Q321.646 237.65 321.105 237.914Q320.564 238.178 319.728 238.178ZM317.596 234.334H321.625Q321.574 233.463 321.038 232.984Q320.502 232.505 319.654 232.505Q318.808 232.505 318.264 232.984Q317.721 233.463 317.596 234.334ZM330.154 238.178Q329.003 238.178 328.211 237.644Q327.419 237.111 327.245 235.949L328.204 235.739Q328.302 236.346 328.584 236.695Q328.866 237.044 329.276 237.192Q329.686 237.341 330.154 237.341Q330.857 237.341 331.263 237.063Q331.67 236.785 331.67 236.312Q331.67 235.831 331.285 235.631Q330.9 235.432 330.224 235.312L329.706 235.222Q329.1 235.113 328.608 234.9Q328.116 234.686 327.827 234.32Q327.537 233.953 327.537 233.394Q327.537 232.553 328.182 232.083Q328.827 231.613 329.891 231.613Q330.945 231.613 331.603 232.088Q332.261 232.562 332.441 233.423L331.505 233.664Q331.385 233.001 330.957 232.726Q330.528 232.45 329.891 232.45Q329.262 232.45 328.895 232.686Q328.527 232.921 328.527 233.372Q328.527 233.821 328.871 234.03Q329.216 234.239 329.81 234.343L330.328 234.433Q330.985 234.542 331.513 234.743Q332.041 234.943 332.351 235.308Q332.66 235.673 332.66 236.279Q332.66 237.188 331.983 237.683Q331.306 238.178 330.154 238.178ZM336.728 238.12Q336.046 238.12 335.484 237.824Q334.923 237.528 334.595 236.953Q334.268 236.379 334.268 235.55V231.791H335.273V235.477Q335.273 236.396 335.735 236.819Q336.197 237.242 336.989 237.242Q337.879 237.242 338.447 236.654Q339.016 236.066 339.016 234.91V231.791H340.021V238H339.042V236.949H338.867Q338.661 237.393 338.169 237.756Q337.678 238.12 336.728 238.12ZM342.124 238V231.791H343.104V232.547H343.278Q343.445 232.139 343.787 231.952Q344.129 231.766 344.696 231.766H345.431V232.683H344.625Q343.952 232.683 343.541 233.056Q343.129 233.43 343.129 234.22V238ZM348.131 238V232.661H346.225V231.791H348.131V230.208Q348.131 229.695 348.42 229.403Q348.708 229.11 349.24 229.11H350.801V229.98H349.51Q349.136 229.98 349.136 230.361V231.791H351.094V232.661H349.136V238ZM354.43 238.178Q353.775 238.178 353.246 237.952Q352.717 237.726 352.41 237.289Q352.104 236.851 352.104 236.231Q352.104 235.601 352.41 235.185Q352.717 234.77 353.247 234.561Q353.777 234.352 354.434 234.352H356.54V233.898Q356.54 233.237 356.152 232.856Q355.764 232.476 355.002 232.476Q354.251 232.476 353.829 232.839Q353.406 233.202 353.263 233.805L352.312 233.508Q352.465 232.981 352.797 232.554Q353.129 232.127 353.681 231.87Q354.232 231.613 355.009 231.613Q356.199 231.613 356.865 232.226Q357.53 232.84 357.53 233.958V236.767Q357.53 237.148 357.886 237.148H358.457V238H357.57Q357.154 238 356.904 237.767Q356.653 237.534 356.653 237.135V237.068H356.493Q356.361 237.311 356.125 237.572Q355.888 237.833 355.48 238.005Q355.072 238.178 354.43 238.178ZM354.547 237.315Q355.436 237.315 355.988 236.787Q356.54 236.259 356.54 235.312V235.167H354.476Q353.878 235.167 353.493 235.426Q353.109 235.684 353.109 236.207Q353.109 236.73 353.506 237.023Q353.904 237.315 354.547 237.315ZM362.683 238.178Q361.778 238.178 361.062 237.792Q360.346 237.407 359.932 236.683Q359.519 235.959 359.519 234.966V234.825Q359.519 233.823 359.932 233.104Q360.346 232.384 361.062 231.999Q361.778 231.613 362.683 231.613Q363.576 231.613 364.201 231.944Q364.826 232.275 365.19 232.819Q365.554 233.362 365.654 233.988L364.673 234.192Q364.613 233.73 364.381 233.349Q364.149 232.967 363.731 232.74Q363.312 232.513 362.694 232.513Q362.077 232.513 361.586 232.794Q361.094 233.076 360.809 233.597Q360.524 234.118 360.524 234.841V234.95Q360.524 235.673 360.809 236.194Q361.094 236.715 361.586 236.997Q362.077 237.278 362.694 237.278Q363.626 237.278 364.113 236.796Q364.6 236.313 364.72 235.595L365.701 235.81Q365.572 236.429 365.199 236.972Q364.826 237.516 364.201 237.847Q363.576 238.178 362.683 238.178ZM370.271 238.178Q369.322 238.178 368.614 237.778Q367.905 237.378 367.51 236.652Q367.114 235.926 367.114 234.972V234.819Q367.114 233.856 367.508 233.135Q367.902 232.413 368.599 232.013Q369.297 231.613 370.201 231.613Q371.083 231.613 371.755 231.99Q372.427 232.367 372.808 233.061Q373.189 233.755 373.189 234.702V235.149H368.127Q368.161 236.157 368.767 236.722Q369.373 237.286 370.286 237.286Q371.094 237.286 371.524 236.922Q371.955 236.557 372.183 236.048L373.049 236.464Q372.862 236.857 372.526 237.253Q372.189 237.65 371.648 237.914Q371.108 238.178 370.271 238.178ZM368.139 234.334H372.168Q372.117 233.463 371.581 232.984Q371.045 232.505 370.197 232.505Q369.351 232.505 368.808 232.984Q368.264 233.463 368.139 234.334Z" aria-label="Discover the surface" role="img" /><circle cx="500" cy="157" r="26" fill="#111a2c" stroke="#ff73b9" stroke-opacity=".75" /><circle cx="500" cy="157" r="32" fill="none" stroke="#ff73b9" stroke-opacity=".2" stroke-dasharray="2 8" /><path fill="#ff73b9" d="M494.95 163.16Q493.334 163.16 492.382 162.224Q491.43 161.288 491.43 159.72V154.6Q491.43 153.032 492.382 152.096Q493.334 151.16 494.95 151.16Q496.566 151.16 497.518 152.096Q498.47 153.032 498.47 154.6V159.72Q498.47 160.76 498.038 161.536Q497.606 162.312 496.814 162.736Q496.022 163.16 494.95 163.16ZM494.95 161.928Q495.91 161.928 496.494 161.312Q497.078 160.696 497.078 159.72V154.6Q497.078 153.624 496.494 153.008Q495.91 152.392 494.95 152.392Q493.99 152.392 493.406 153.008Q492.822 153.624 492.822 154.6V159.72Q492.822 160.696 493.406 161.312Q493.99 161.928 494.95 161.928ZM494.95 158.04Q494.518 158.04 494.254 157.8Q493.99 157.56 493.99 157.112Q493.99 156.68 494.254 156.448Q494.518 156.216 494.95 156.216Q495.382 156.216 495.646 156.448Q495.91 156.68 495.91 157.112Q495.91 157.56 495.646 157.8Q495.382 158.04 494.95 158.04ZM504.874 163.16Q503.258 163.16 502.314 162.256Q501.37 161.352 501.37 159.8H502.81Q502.81 160.76 503.37 161.32Q503.93 161.88 504.89 161.88Q505.85 161.88 506.41 161.32Q506.97 160.76 506.97 159.8V159Q506.97 158.04 506.41 157.48Q505.85 156.92 504.89 156.92H503.626V155.672L506.49 152.632H501.69V151.32H508.122V152.664L505.306 155.656Q506.746 155.768 507.578 156.656Q508.41 157.544 508.41 159V159.8Q508.41 161.352 507.458 162.256Q506.506 163.16 504.874 163.16Z" aria-label="03" role="img" /><path fill="#f2f5ff" d="M483.175 212V200.183H478.99V198H489.762V200.183H485.577V212ZM496.232 212.28Q494.748 212.28 493.622 211.65Q492.495 211.02 491.867 209.872Q491.239 208.723 491.239 207.177V206.937Q491.239 205.388 491.859 204.241Q492.479 203.095 493.593 202.465Q494.708 201.835 496.174 201.835Q497.617 201.835 498.692 202.471Q499.766 203.107 500.366 204.243Q500.966 205.379 500.966 206.892V207.714H493.561Q493.604 208.873 494.382 209.575Q495.16 210.276 496.298 210.276Q497.41 210.276 497.954 209.788Q498.498 209.3 498.782 208.68L500.671 209.656Q500.387 210.2 499.857 210.813Q499.327 211.427 498.454 211.853Q497.581 212.28 496.232 212.28ZM493.581 205.98H498.641Q498.561 204.995 497.893 204.417Q497.225 203.839 496.158 203.839Q495.061 203.839 494.398 204.417Q493.735 204.995 493.581 205.98ZM507.407 212.28Q505.498 212.28 504.256 211.44Q503.015 210.6 502.751 208.974L504.872 208.44Q505.015 209.203 505.373 209.64Q505.731 210.076 506.26 210.262Q506.788 210.448 507.407 210.448Q508.343 210.448 508.817 210.106Q509.291 209.765 509.291 209.235Q509.291 208.702 508.84 208.436Q508.39 208.17 507.464 208.003L506.841 207.893Q505.822 207.7 504.983 207.353Q504.144 207.007 503.64 206.397Q503.136 205.788 503.136 204.832Q503.136 203.39 504.2 202.613Q505.264 201.835 507.003 201.835Q508.663 201.835 509.747 202.577Q510.832 203.318 511.158 204.557L509.031 205.193Q508.864 204.363 508.329 204.015Q507.793 203.667 507.003 203.667Q506.217 203.667 505.788 203.947Q505.359 204.227 505.359 204.733Q505.359 205.269 505.794 205.523Q506.229 205.778 506.972 205.908L507.595 206.019Q508.694 206.212 509.584 206.538Q510.475 206.865 510.995 207.466Q511.514 208.067 511.514 209.086Q511.514 210.615 510.4 211.447Q509.286 212.28 507.407 212.28ZM517.577 212Q516.632 212 516.061 211.427Q515.489 210.853 515.489 209.886V204.02H512.897V202.115H515.489V198.937H517.778V202.115H520.617V204.02H517.778V209.495Q517.778 210.095 518.345 210.095H520.328V212Z" aria-label="Test" role="img" /><path fill="#a8b8d5" d="M438.899 238 436.214 229.11H437.319L439.749 237.353H439.909L442.339 229.11H443.444L440.759 238ZM446.724 238.178Q446.069 238.178 445.54 237.952Q445.011 237.726 444.705 237.289Q444.398 236.851 444.398 236.231Q444.398 235.601 444.705 235.185Q445.011 234.77 445.541 234.561Q446.071 234.352 446.728 234.352H448.834V233.898Q448.834 233.237 448.447 232.856Q448.059 232.476 447.296 232.476Q446.546 232.476 446.123 232.839Q445.7 233.202 445.557 233.805L444.607 233.508Q444.76 232.981 445.092 232.554Q445.424 232.127 445.975 231.87Q446.527 231.613 447.304 231.613Q448.494 231.613 449.159 232.226Q449.825 232.84 449.825 233.958V236.767Q449.825 237.148 450.18 237.148H450.751V238H449.865Q449.449 238 449.198 237.767Q448.948 237.534 448.948 237.135V237.068H448.788Q448.656 237.311 448.419 237.572Q448.183 237.833 447.775 238.005Q447.367 238.178 446.724 238.178ZM446.841 237.315Q447.731 237.315 448.283 236.787Q448.834 236.259 448.834 235.312V235.167H446.771Q446.173 235.167 445.788 235.426Q445.403 235.684 445.403 236.207Q445.403 236.73 445.801 237.023Q446.198 237.315 446.841 237.315ZM452.118 238V229.11H453.123V238ZM455.226 238V231.791H456.231V238ZM455.728 230.82Q455.405 230.82 455.183 230.604Q454.961 230.387 454.961 230.056Q454.961 229.716 455.183 229.505Q455.405 229.293 455.728 229.293Q456.065 229.293 456.28 229.505Q456.496 229.716 456.496 230.056Q456.496 230.387 456.28 230.604Q456.065 230.82 455.728 230.82ZM460.964 238.178Q460.16 238.178 459.493 237.794Q458.825 237.41 458.427 236.691Q458.029 235.972 458.029 234.979V234.812Q458.029 233.819 458.422 233.1Q458.816 232.381 459.486 231.997Q460.157 231.613 460.964 231.613Q461.616 231.613 462.062 231.783Q462.508 231.952 462.79 232.214Q463.072 232.476 463.226 232.767H463.401V229.11H464.406V238H463.426V236.976H463.251Q462.999 237.44 462.467 237.809Q461.935 238.178 460.964 238.178ZM461.23 237.286Q462.192 237.286 462.8 236.67Q463.408 236.054 463.408 234.95V234.841Q463.408 233.737 462.802 233.121Q462.196 232.505 461.23 232.505Q460.277 232.505 459.664 233.121Q459.052 233.737 459.052 234.841V234.95Q459.052 236.054 459.664 236.67Q460.277 237.286 461.23 237.286ZM468.419 238.178Q467.764 238.178 467.235 237.952Q466.706 237.726 466.399 237.289Q466.093 236.851 466.093 236.231Q466.093 235.601 466.399 235.185Q466.706 234.77 467.236 234.561Q467.766 234.352 468.423 234.352H470.529V233.898Q470.529 233.237 470.141 232.856Q469.754 232.476 468.991 232.476Q468.241 232.476 467.818 232.839Q467.395 233.202 467.252 233.805L466.302 233.508Q466.454 232.981 466.786 232.554Q467.118 232.127 467.67 231.87Q468.221 231.613 468.998 231.613Q470.189 231.613 470.854 232.226Q471.519 232.84 471.519 233.958V236.767Q471.519 237.148 471.875 237.148H472.446V238H471.56Q471.144 238 470.893 237.767Q470.642 237.534 470.642 237.135V237.068H470.482Q470.35 237.311 470.114 237.572Q469.877 237.833 469.469 238.005Q469.061 238.178 468.419 238.178ZM468.536 237.315Q469.426 237.315 469.977 236.787Q470.529 236.259 470.529 235.312V235.167H468.465Q467.867 235.167 467.483 235.426Q467.098 235.684 467.098 236.207Q467.098 236.73 467.495 237.023Q467.893 237.315 468.536 237.315ZM476.1 238Q475.567 238 475.279 237.707Q474.991 237.415 474.991 236.902V232.661H473.128V231.791H474.991V229.583H475.996V231.791H478.03V232.661H475.996V236.749Q475.996 237.13 476.37 237.13H477.751V238ZM482.51 238.178Q481.561 238.178 480.853 237.778Q480.144 237.378 479.749 236.652Q479.353 235.926 479.353 234.972V234.819Q479.353 233.856 479.747 233.135Q480.141 232.413 480.838 232.013Q481.536 231.613 482.44 231.613Q483.322 231.613 483.994 231.99Q484.666 232.367 485.047 233.061Q485.428 233.755 485.428 234.702V235.149H480.366Q480.4 236.157 481.006 236.722Q481.612 237.286 482.525 237.286Q483.333 237.286 483.764 236.922Q484.194 236.557 484.422 236.048L485.288 236.464Q485.101 236.857 484.765 237.253Q484.428 237.65 483.888 237.914Q483.347 238.178 482.51 238.178ZM480.378 234.334H484.407Q484.356 233.463 483.82 232.984Q483.284 232.505 482.436 232.505Q481.59 232.505 481.047 232.984Q480.503 233.463 480.378 234.334ZM491.306 238 490.056 231.791H491.076L492.103 237.326H492.278L493.641 231.791H495.304L496.667 237.326H496.842L497.869 231.791H498.889L497.639 238H495.923L494.56 232.465H494.385L493.022 238ZM503.463 238.178Q502.514 238.178 501.805 237.778Q501.097 237.378 500.701 236.652Q500.306 235.926 500.306 234.972V234.819Q500.306 233.856 500.699 233.135Q501.093 232.413 501.791 232.013Q502.488 231.613 503.392 231.613Q504.274 231.613 504.946 231.99Q505.619 232.367 506 233.061Q506.381 233.755 506.381 234.702V235.149H501.318Q501.352 236.157 501.958 236.722Q502.564 237.286 503.477 237.286Q504.286 237.286 504.716 236.922Q505.146 236.557 505.374 236.048L506.241 236.464Q506.054 236.857 505.717 237.253Q505.381 237.65 504.84 237.914Q504.299 238.178 503.463 238.178ZM501.331 234.334H505.359Q505.308 233.463 504.772 232.984Q504.236 232.505 503.388 232.505Q502.542 232.505 501.999 232.984Q501.456 233.463 501.331 234.334ZM510.038 238.178Q509.383 238.178 508.854 237.952Q508.326 237.726 508.019 237.289Q507.712 236.851 507.712 236.231Q507.712 235.601 508.019 235.185Q508.326 234.77 508.855 234.561Q509.385 234.352 510.042 234.352H512.148V233.898Q512.148 233.237 511.761 232.856Q511.373 232.476 510.61 232.476Q509.86 232.476 509.437 232.839Q509.014 233.202 508.871 233.805L507.921 233.508Q508.074 232.981 508.406 232.554Q508.738 232.127 509.289 231.87Q509.841 231.613 510.618 231.613Q511.808 231.613 512.473 232.226Q513.139 232.84 513.139 233.958V236.767Q513.139 237.148 513.494 237.148H514.065V238H513.179Q512.763 238 512.512 237.767Q512.262 237.534 512.262 237.135V237.068H512.102Q511.97 237.311 511.733 237.572Q511.497 237.833 511.089 238.005Q510.681 238.178 510.038 238.178ZM510.155 237.315Q511.045 237.315 511.597 236.787Q512.148 236.259 512.148 235.312V235.167H510.085Q509.487 235.167 509.102 235.426Q508.717 235.684 508.717 236.207Q508.717 236.73 509.115 237.023Q509.512 237.315 510.155 237.315ZM515.432 238V229.11H516.437V234.341H516.612L519.461 231.791H520.859L517.418 234.812L520.96 238H519.579L516.612 235.3H516.437V238ZM522.261 238V231.791H523.241V232.842H523.416Q523.622 232.394 524.113 232.033Q524.605 231.671 525.555 231.671Q526.246 231.671 526.803 231.967Q527.36 232.263 527.687 232.836Q528.015 233.408 528.015 234.241V238H527.01V234.314Q527.01 233.386 526.548 232.967Q526.086 232.549 525.294 232.549Q524.404 232.549 523.835 233.137Q523.266 233.725 523.266 234.881V238ZM532.901 238.178Q531.952 238.178 531.243 237.778Q530.535 237.378 530.139 236.652Q529.744 235.926 529.744 234.972V234.819Q529.744 233.856 530.137 233.135Q530.531 232.413 531.229 232.013Q531.926 231.613 532.83 231.613Q533.712 231.613 534.384 231.99Q535.057 232.367 535.438 233.061Q535.819 233.755 535.819 234.702V235.149H530.756Q530.791 236.157 531.397 236.722Q532.003 237.286 532.915 237.286Q533.724 237.286 534.154 236.922Q534.584 236.557 534.812 236.048L535.679 236.464Q535.492 236.857 535.155 237.253Q534.819 237.65 534.278 237.914Q533.737 238.178 532.901 238.178ZM530.769 234.334H534.797Q534.747 233.463 534.21 232.984Q533.674 232.505 532.827 232.505Q531.98 232.505 531.437 232.984Q530.894 233.463 530.769 234.334ZM540.065 238.178Q538.914 238.178 538.122 237.644Q537.33 237.111 537.156 235.949L538.115 235.739Q538.213 236.346 538.495 236.695Q538.777 237.044 539.187 237.192Q539.597 237.341 540.065 237.341Q540.768 237.341 541.174 237.063Q541.581 236.785 541.581 236.312Q541.581 235.831 541.196 235.631Q540.811 235.432 540.135 235.312L539.617 235.222Q539.011 235.113 538.519 234.9Q538.027 234.686 537.737 234.32Q537.448 233.953 537.448 233.394Q537.448 232.553 538.093 232.083Q538.738 231.613 539.802 231.613Q540.856 231.613 541.514 232.088Q542.172 232.562 542.352 233.423L541.416 233.664Q541.296 233.001 540.868 232.726Q540.439 232.45 539.802 232.45Q539.173 232.45 538.806 232.686Q538.438 232.921 538.438 233.372Q538.438 233.821 538.782 234.03Q539.126 234.239 539.721 234.343L540.238 234.433Q540.896 234.542 541.424 234.743Q541.952 234.943 542.262 235.308Q542.571 235.673 542.571 236.279Q542.571 237.188 541.894 237.683Q541.217 238.178 540.065 238.178ZM546.756 238.178Q545.605 238.178 544.813 237.644Q544.021 237.111 543.847 235.949L544.806 235.739Q544.904 236.346 545.186 236.695Q545.467 237.044 545.878 237.192Q546.288 237.341 546.756 237.341Q547.459 237.341 547.865 237.063Q548.272 236.785 548.272 236.312Q548.272 235.831 547.887 235.631Q547.502 235.432 546.826 235.312L546.308 235.222Q545.702 235.113 545.21 234.9Q544.718 234.686 544.428 234.32Q544.139 233.953 544.139 233.394Q544.139 232.553 544.784 232.083Q545.429 231.613 546.493 231.613Q547.547 231.613 548.205 232.088Q548.863 232.562 549.042 233.423L548.107 233.664Q547.987 233.001 547.559 232.726Q547.13 232.45 546.493 232.45Q545.864 232.45 545.497 232.686Q545.129 232.921 545.129 233.372Q545.129 233.821 545.473 234.03Q545.817 234.239 546.411 234.343L546.929 234.433Q547.586 234.542 548.115 234.743Q548.643 234.943 548.952 235.308Q549.262 235.673 549.262 236.279Q549.262 237.188 548.585 237.683Q547.908 238.178 546.756 238.178ZM553.8 238.178Q552.851 238.178 552.142 237.778Q551.434 237.378 551.038 236.652Q550.643 235.926 550.643 234.972V234.819Q550.643 233.856 551.036 233.135Q551.43 232.413 552.128 232.013Q552.825 231.613 553.729 231.613Q554.611 231.613 555.283 231.99Q555.956 232.367 556.337 233.061Q556.718 233.755 556.718 234.702V235.149H551.655Q551.69 236.157 552.296 236.722Q552.902 237.286 553.814 237.286Q554.623 237.286 555.053 236.922Q555.483 236.557 555.711 236.048L556.578 236.464Q556.391 236.857 556.054 237.253Q555.718 237.65 555.177 237.914Q554.636 238.178 553.8 238.178ZM551.668 234.334H555.696Q555.646 233.463 555.109 232.984Q554.573 232.505 553.726 232.505Q552.879 232.505 552.336 232.984Q551.793 233.463 551.668 234.334ZM560.964 238.178Q559.813 238.178 559.021 237.644Q558.229 237.111 558.055 235.949L559.014 235.739Q559.112 236.346 559.394 236.695Q559.676 237.044 560.086 237.192Q560.496 237.341 560.964 237.341Q561.667 237.341 562.073 237.063Q562.48 236.785 562.48 236.312Q562.48 235.831 562.095 235.631Q561.71 235.432 561.034 235.312L560.516 235.222Q559.91 235.113 559.418 234.9Q558.926 234.686 558.636 234.32Q558.347 233.953 558.347 233.394Q558.347 232.553 558.992 232.083Q559.637 231.613 560.701 231.613Q561.755 231.613 562.413 232.088Q563.071 232.562 563.251 233.423L562.315 233.664Q562.195 233.001 561.767 232.726Q561.338 232.45 560.701 232.45Q560.072 232.45 559.705 232.686Q559.337 232.921 559.337 233.372Q559.337 233.821 559.681 234.03Q560.025 234.239 560.62 234.343L561.137 234.433Q561.795 234.542 562.323 234.743Q562.851 234.943 563.161 235.308Q563.47 235.673 563.47 236.279Q563.47 237.188 562.793 237.683Q562.116 238.178 560.964 238.178Z" aria-label="Validate weaknesses" role="img" /><circle cx="690" cy="157" r="26" fill="#111a2c" stroke="#7ef5bd" stroke-opacity=".75" /><circle cx="690" cy="157" r="32" fill="none" stroke="#7ef5bd" stroke-opacity=".2" stroke-dasharray="2 8" /><path fill="#7ef5bd" d="M684.95 163.16Q683.334 163.16 682.382 162.224Q681.43 161.288 681.43 159.72V154.6Q681.43 153.032 682.382 152.096Q683.334 151.16 684.95 151.16Q686.566 151.16 687.518 152.096Q688.47 153.032 688.47 154.6V159.72Q688.47 160.76 688.038 161.536Q687.606 162.312 686.814 162.736Q686.022 163.16 684.95 163.16ZM684.95 161.928Q685.91 161.928 686.494 161.312Q687.078 160.696 687.078 159.72V154.6Q687.078 153.624 686.494 153.008Q685.91 152.392 684.95 152.392Q683.99 152.392 683.406 153.008Q682.822 153.624 682.822 154.6V159.72Q682.822 160.696 683.406 161.312Q683.99 161.928 684.95 161.928ZM684.95 158.04Q684.518 158.04 684.254 157.8Q683.99 157.56 683.99 157.112Q683.99 156.68 684.254 156.448Q684.518 156.216 684.95 156.216Q685.382 156.216 685.646 156.448Q685.91 156.68 685.91 157.112Q685.91 157.56 685.646 157.8Q685.382 158.04 684.95 158.04ZM696.65 163V160.44H691.37V158.184L695.626 151.32H697.258L692.81 158.504V159.128H696.65V156.28H698.09V163Z" aria-label="04" role="img" /><path fill="#f2f5ff" d="M669.526 212.28Q666.95 212.28 665.439 210.83Q663.928 209.38 663.928 206.663V203.337Q663.928 200.62 665.439 199.17Q666.95 197.72 669.526 197.72Q672.081 197.72 673.47 199.123Q674.859 200.526 674.859 202.969V203.085H672.49V202.896Q672.49 201.572 671.762 200.721Q671.033 199.87 669.526 199.87Q668.031 199.87 667.181 200.786Q666.33 201.702 666.33 203.297V206.703Q666.33 208.281 667.181 209.206Q668.031 210.13 669.526 210.13Q671.033 210.13 671.762 209.271Q672.49 208.412 672.49 207.104V206.755H674.859V207.031Q674.859 209.474 673.47 210.877Q672.081 212.28 669.526 212.28ZM677.211 212V198H679.5V203.419H679.839Q680.013 203.071 680.369 202.732Q680.725 202.392 681.316 202.172Q681.907 201.951 682.815 201.951Q683.957 201.951 684.829 202.466Q685.701 202.98 686.19 203.901Q686.678 204.823 686.678 206.08V212H684.389V206.259Q684.389 205.055 683.795 204.472Q683.202 203.89 682.126 203.89Q680.906 203.89 680.203 204.696Q679.5 205.503 679.5 206.991V212ZM692.58 212.28Q691.527 212.28 690.688 211.913Q689.85 211.547 689.362 210.842Q688.874 210.137 688.874 209.128Q688.874 208.115 689.362 207.434Q689.85 206.752 690.711 206.408Q691.573 206.063 692.672 206.063H695.539V205.464Q695.539 204.681 695.057 204.194Q694.575 203.707 693.555 203.707Q692.556 203.707 692.045 204.172Q691.534 204.637 691.373 205.383L689.256 204.68Q689.496 203.903 690.024 203.262Q690.553 202.622 691.437 202.228Q692.322 201.835 693.588 201.835Q695.527 201.835 696.644 202.811Q697.762 203.788 697.762 205.623V209.502Q697.762 210.102 698.322 210.102H699.146V212H697.536Q696.817 212 696.358 211.638Q695.899 211.277 695.899 210.67V210.629H695.551Q695.439 210.903 695.136 211.299Q694.834 211.694 694.223 211.987Q693.613 212.28 692.58 212.28ZM692.957 210.408Q694.101 210.408 694.82 209.758Q695.539 209.109 695.539 208.003V207.796H692.824Q692.064 207.796 691.614 208.122Q691.163 208.449 691.163 209.058Q691.163 209.668 691.634 210.038Q692.104 210.408 692.957 210.408ZM701.063 212V202.115H703.352V212ZM702.208 200.864Q701.57 200.864 701.129 200.449Q700.689 200.033 700.689 199.362Q700.689 198.687 701.129 198.274Q701.57 197.86 702.208 197.86Q702.866 197.86 703.296 198.274Q703.726 198.687 703.726 199.362Q703.726 200.033 703.296 200.449Q702.866 200.864 702.208 200.864ZM706.278 212V202.115H708.527V203.502H708.866Q709.127 202.937 709.815 202.442Q710.503 201.948 711.882 201.948Q713.024 201.948 713.896 202.462Q714.768 202.977 715.257 203.9Q715.745 204.823 715.745 206.08V212H713.456V206.259Q713.456 205.055 712.862 204.471Q712.269 203.886 711.193 203.886Q709.973 203.886 709.27 204.695Q708.567 205.503 708.567 206.991V212Z" aria-label="Chain" role="img" /><path fill="#a8b8d5" d="M628.923 238.178Q627.335 238.178 626.392 237.257Q625.45 236.336 625.45 234.577V232.533Q625.45 230.774 626.392 229.853Q627.335 228.932 628.923 228.932Q630.498 228.932 631.339 229.81Q632.18 230.687 632.18 232.204V232.271H631.125V232.171Q631.125 231.167 630.587 230.529Q630.05 229.89 628.923 229.89Q627.79 229.89 627.152 230.58Q626.513 231.271 626.513 232.508V234.602Q626.513 235.836 627.152 236.528Q627.79 237.22 628.923 237.22Q630.05 237.22 630.587 236.58Q631.125 235.939 631.125 234.939V234.737H632.18V234.906Q632.18 236.423 631.339 237.3Q630.498 238.178 628.923 238.178ZM636.762 238.178Q635.823 238.178 635.105 237.783Q634.387 237.389 633.987 236.669Q633.587 235.95 633.587 234.979V234.812Q633.587 233.841 633.987 233.122Q634.387 232.402 635.105 232.008Q635.823 231.613 636.762 231.613Q637.702 231.613 638.42 232.008Q639.138 232.402 639.538 233.122Q639.938 233.841 639.938 234.812V234.979Q639.938 235.95 639.538 236.669Q639.138 237.389 638.42 237.783Q637.702 238.178 636.762 238.178ZM636.762 237.278Q637.751 237.278 638.342 236.649Q638.933 236.019 638.933 234.95V234.841Q638.933 233.772 638.344 233.142Q637.755 232.513 636.762 232.513Q635.782 232.513 635.187 233.142Q634.592 233.772 634.592 234.841V234.95Q634.592 236.019 635.187 236.649Q635.782 237.278 636.762 237.278ZM641.736 238V231.791H642.716V232.842H642.89Q643.097 232.394 643.588 232.033Q644.079 231.671 645.029 231.671Q645.721 231.671 646.278 231.967Q646.835 232.263 647.162 232.836Q647.489 233.408 647.489 234.241V238H646.484V234.314Q646.484 233.386 646.022 232.967Q645.56 232.549 644.768 232.549Q643.878 232.549 643.31 233.137Q642.741 233.725 642.741 234.881V238ZM649.523 238V231.791H650.503V232.842H650.677Q650.884 232.394 651.375 232.033Q651.866 231.671 652.816 231.671Q653.508 231.671 654.065 231.967Q654.622 232.263 654.949 232.836Q655.276 233.408 655.276 234.241V238H654.271V234.314Q654.271 233.386 653.809 232.967Q653.347 232.549 652.555 232.549Q651.666 232.549 651.097 233.137Q650.528 233.725 650.528 234.881V238ZM660.162 238.178Q659.214 238.178 658.505 237.778Q657.796 237.378 657.401 236.652Q657.005 235.926 657.005 234.972V234.819Q657.005 233.856 657.399 233.135Q657.793 232.413 658.49 232.013Q659.188 231.613 660.092 231.613Q660.974 231.613 661.646 231.99Q662.318 232.367 662.699 233.061Q663.08 233.755 663.08 234.702V235.149H658.018Q658.052 236.157 658.658 236.722Q659.264 237.286 660.177 237.286Q660.985 237.286 661.416 236.922Q661.846 236.557 662.074 236.048L662.94 236.464Q662.754 236.857 662.417 237.253Q662.08 237.65 661.54 237.914Q660.999 238.178 660.162 238.178ZM658.031 234.334H662.059Q662.008 233.463 661.472 232.984Q660.936 232.505 660.088 232.505Q659.242 232.505 658.699 232.984Q658.155 233.463 658.031 234.334ZM667.687 238.178Q666.782 238.178 666.066 237.792Q665.35 237.407 664.936 236.683Q664.523 235.959 664.523 234.966V234.825Q664.523 233.823 664.936 233.104Q665.35 232.384 666.066 231.999Q666.782 231.613 667.687 231.613Q668.58 231.613 669.205 231.944Q669.83 232.275 670.194 232.819Q670.558 233.362 670.658 233.988L669.677 234.192Q669.617 233.73 669.385 233.349Q669.153 232.967 668.735 232.74Q668.316 232.513 667.698 232.513Q667.081 232.513 666.59 232.794Q666.098 233.076 665.813 233.597Q665.528 234.118 665.528 234.841V234.95Q665.528 235.673 665.813 236.194Q666.098 236.715 666.59 236.997Q667.081 237.278 667.698 237.278Q668.63 237.278 669.117 236.796Q669.604 236.313 669.724 235.595L670.705 235.81Q670.576 236.429 670.203 236.972Q669.83 237.516 669.205 237.847Q668.58 238.178 667.687 238.178ZM674.71 238Q674.178 238 673.889 237.707Q673.601 237.415 673.601 236.902V232.661H671.738V231.791H673.601V229.583H674.606V231.791H676.64V232.661H674.606V236.749Q674.606 237.13 674.98 237.13H676.361V238ZM683.817 238Q683.285 238 682.997 237.707Q682.708 237.415 682.708 236.902V232.661H680.845V231.791H682.708V229.583H683.713V231.791H685.747V232.661H683.713V236.749Q683.713 237.13 684.087 237.13H685.469V238ZM687.375 238V229.11H688.38V232.782H688.555Q688.693 232.507 688.949 232.254Q689.206 232.001 689.622 231.841Q690.038 231.68 690.669 231.68Q691.36 231.68 691.917 231.976Q692.474 232.272 692.801 232.84Q693.129 233.408 693.129 234.241V238H692.124V234.314Q692.124 233.386 691.662 232.972Q691.2 232.558 690.408 232.558Q689.518 232.558 688.949 233.141Q688.38 233.725 688.38 234.881V238ZM698.015 238.178Q697.066 238.178 696.357 237.778Q695.649 237.378 695.253 236.652Q694.858 235.926 694.858 234.972V234.819Q694.858 233.856 695.251 233.135Q695.645 232.413 696.343 232.013Q697.041 231.613 697.944 231.613Q698.826 231.613 699.499 231.99Q700.171 232.367 700.552 233.061Q700.933 233.755 700.933 234.702V235.149H695.87Q695.905 236.157 696.511 236.722Q697.117 237.286 698.029 237.286Q698.838 237.286 699.268 236.922Q699.698 236.557 699.926 236.048L700.793 236.464Q700.606 236.857 700.269 237.253Q699.933 237.65 699.392 237.914Q698.851 238.178 698.015 238.178ZM695.883 234.334H699.911Q699.861 233.463 699.324 232.984Q698.788 232.505 697.941 232.505Q697.094 232.505 696.551 232.984Q696.008 233.463 695.883 234.334ZM707.163 238V232.661H705.257V231.791H707.163V230.208Q707.163 229.695 707.452 229.403Q707.74 229.11 708.272 229.11H709.833V229.98H708.542Q708.169 229.98 708.169 230.361V231.791H710.126V232.661H708.169V238ZM711.551 238V231.791H712.556V238ZM712.054 230.82Q711.73 230.82 711.508 230.604Q711.286 230.387 711.286 230.056Q711.286 229.716 711.508 229.505Q711.73 229.293 712.054 229.293Q712.39 229.293 712.605 229.505Q712.821 229.716 712.821 230.056Q712.821 230.387 712.605 230.604Q712.39 230.82 712.054 230.82ZM714.659 238V231.791H715.638V232.842H715.813Q716.019 232.394 716.511 232.033Q717.002 231.671 717.952 231.671Q718.643 231.671 719.2 231.967Q719.757 232.263 720.085 232.836Q720.412 233.408 720.412 234.241V238H719.407V234.314Q719.407 233.386 718.945 232.967Q718.483 232.549 717.691 232.549Q716.801 232.549 716.232 233.137Q715.664 233.725 715.664 234.881V238ZM725.076 238.178Q724.273 238.178 723.605 237.794Q722.937 237.41 722.539 236.691Q722.141 235.972 722.141 234.979V234.812Q722.141 233.819 722.535 233.1Q722.928 232.381 723.599 231.997Q724.269 231.613 725.076 231.613Q725.729 231.613 726.175 231.783Q726.621 231.952 726.902 232.214Q727.184 232.476 727.338 232.767H727.513V229.11H728.518V238H727.538V236.976H727.364Q727.112 237.44 726.58 237.809Q726.048 238.178 725.076 238.178ZM725.342 237.286Q726.304 237.286 726.912 236.67Q727.52 236.054 727.52 234.95V234.841Q727.52 233.737 726.914 233.121Q726.308 232.505 725.342 232.505Q724.389 232.505 723.777 233.121Q723.164 233.737 723.164 234.841V234.95Q723.164 236.054 723.777 236.67Q724.389 237.286 725.342 237.286ZM730.621 238V231.791H731.626V238ZM731.123 230.82Q730.8 230.82 730.578 230.604Q730.356 230.387 730.356 230.056Q730.356 229.716 730.578 229.505Q730.8 229.293 731.123 229.293Q731.459 229.293 731.675 229.505Q731.89 229.716 731.89 230.056Q731.89 230.387 731.675 230.604Q731.459 230.82 731.123 230.82ZM733.728 238V231.791H734.708V232.842H734.882Q735.089 232.394 735.58 232.033Q736.071 231.671 737.021 231.671Q737.713 231.671 738.27 231.967Q738.827 232.263 739.154 232.836Q739.482 233.408 739.482 234.241V238H738.477V234.314Q738.477 233.386 738.015 232.967Q737.553 232.549 736.761 232.549Q735.871 232.549 735.302 233.137Q734.733 233.725 734.733 234.881V238ZM741.211 234.921V234.754Q741.211 233.772 741.609 233.072Q742.007 232.371 742.675 231.992Q743.342 231.613 744.153 231.613Q745.125 231.613 745.655 231.986Q746.185 232.358 746.433 232.814H746.608V231.791H747.569V239.442Q747.569 239.955 747.288 240.247Q747.006 240.54 746.47 240.54H742.254V239.648H746.2Q746.582 239.648 746.582 239.267V236.907H746.408Q746.254 237.183 745.976 237.451Q745.698 237.719 745.253 237.89Q744.809 238.061 744.153 238.061Q743.342 238.061 742.67 237.682Q741.998 237.303 741.604 236.598Q741.211 235.893 741.211 234.921ZM744.412 237.169Q745.374 237.169 745.982 236.564Q746.59 235.959 746.59 234.892V234.783Q746.59 233.703 745.984 233.104Q745.377 232.505 744.412 232.505Q743.459 232.505 742.846 233.104Q742.234 233.703 742.234 234.783V234.892Q742.234 235.959 742.846 236.564Q743.459 237.169 744.412 237.169ZM752.171 238.178Q751.02 238.178 750.228 237.644Q749.437 237.111 749.262 235.949L750.222 235.739Q750.32 236.346 750.601 236.695Q750.883 237.044 751.293 237.192Q751.704 237.341 752.171 237.341Q752.874 237.341 753.281 237.063Q753.687 236.785 753.687 236.312Q753.687 235.831 753.302 235.631Q752.918 235.432 752.242 235.312L751.724 235.222Q751.117 235.113 750.625 234.9Q750.133 234.686 749.844 234.32Q749.554 233.953 749.554 233.394Q749.554 232.553 750.199 232.083Q750.845 231.613 751.908 231.613Q752.962 231.613 753.62 232.088Q754.278 232.562 754.458 233.423L753.522 233.664Q753.402 233.001 752.974 232.726Q752.546 232.45 751.908 232.45Q751.28 232.45 750.912 232.686Q750.544 232.921 750.544 233.372Q750.544 233.821 750.889 234.03Q751.233 234.239 751.827 234.343L752.345 234.433Q753.002 234.542 753.53 234.743Q754.058 234.943 754.368 235.308Q754.677 235.673 754.677 236.279Q754.677 237.188 754 237.683Q753.323 238.178 752.171 238.178Z" aria-label="Connect the findings" role="img" /><circle cx="880" cy="157" r="26" fill="#111a2c" stroke="#60e7f9" stroke-opacity=".75" /><circle cx="880" cy="157" r="32" fill="none" stroke="#60e7f9" stroke-opacity=".2" stroke-dasharray="2 8" /><path fill="#60e7f9" d="M874.95 163.16Q873.334 163.16 872.382 162.224Q871.43 161.288 871.43 159.72V154.6Q871.43 153.032 872.382 152.096Q873.334 151.16 874.95 151.16Q876.566 151.16 877.518 152.096Q878.47 153.032 878.47 154.6V159.72Q878.47 160.76 878.038 161.536Q877.606 162.312 876.814 162.736Q876.022 163.16 874.95 163.16ZM874.95 161.928Q875.91 161.928 876.494 161.312Q877.078 160.696 877.078 159.72V154.6Q877.078 153.624 876.494 153.008Q875.91 152.392 874.95 152.392Q873.99 152.392 873.406 153.008Q872.822 153.624 872.822 154.6V159.72Q872.822 160.696 873.406 161.312Q873.99 161.928 874.95 161.928ZM874.95 158.04Q874.518 158.04 874.254 157.8Q873.99 157.56 873.99 157.112Q873.99 156.68 874.254 156.448Q874.518 156.216 874.95 156.216Q875.382 156.216 875.646 156.448Q875.91 156.68 875.91 157.112Q875.91 157.56 875.646 157.8Q875.382 158.04 874.95 158.04ZM884.954 163.16Q883.338 163.16 882.394 162.256Q881.45 161.352 881.45 159.8H882.89Q882.89 160.76 883.45 161.32Q884.01 161.88 884.97 161.88Q885.93 161.88 886.49 161.32Q887.05 160.76 887.05 159.8V159.08Q887.05 158.12 886.506 157.56Q885.962 157 885.034 157H881.85V151.32H888.074V152.632H883.194L883.226 155.688H885.114Q886.73 155.688 887.61 156.576Q888.49 157.464 888.49 159.08V159.8Q888.49 161.352 887.538 162.256Q886.586 163.16 884.954 163.16Z" aria-label="05" role="img" /><path fill="#f2f5ff" d="M848.254 212V198H854.229Q855.545 198 856.527 198.457Q857.509 198.913 858.054 199.751Q858.599 200.59 858.599 201.737V201.97Q858.599 203.257 857.985 204.043Q857.371 204.828 856.484 205.17V205.51Q857.267 205.546 857.714 206.04Q858.161 206.535 858.161 207.389V212H855.759V207.727Q855.759 207.219 855.491 206.912Q855.224 206.605 854.623 206.605H850.656V212ZM850.656 204.421H853.977Q855.025 204.421 855.611 203.873Q856.197 203.324 856.197 202.394V202.211Q856.197 201.28 855.623 200.732Q855.049 200.183 853.977 200.183H850.656ZM865.476 212.28Q863.993 212.28 862.866 211.65Q861.74 211.02 861.111 209.872Q860.483 208.723 860.483 207.177V206.937Q860.483 205.388 861.103 204.241Q861.723 203.095 862.838 202.465Q863.953 201.835 865.419 201.835Q866.861 201.835 867.936 202.471Q869.011 203.107 869.611 204.243Q870.211 205.379 870.211 206.892V207.714H862.805Q862.849 208.873 863.627 209.575Q864.404 210.276 865.542 210.276Q866.655 210.276 867.198 209.788Q867.742 209.3 868.027 208.68L869.915 209.656Q869.632 210.2 869.102 210.813Q868.572 211.427 867.699 211.853Q866.826 212.28 865.476 212.28ZM862.825 205.98H867.885Q867.805 204.995 867.137 204.417Q866.47 203.839 865.402 203.839Q864.305 203.839 863.642 204.417Q862.979 204.995 862.825 205.98ZM872.577 216V202.115H874.826V203.416H875.165Q875.519 202.798 876.269 202.316Q877.018 201.835 878.404 201.835Q879.621 201.835 880.648 202.428Q881.675 203.022 882.297 204.158Q882.919 205.295 882.919 206.904V207.21Q882.919 208.817 882.299 209.955Q881.679 211.093 880.652 211.687Q879.625 212.28 878.404 212.28Q877.476 212.28 876.841 212.056Q876.207 211.832 875.819 211.479Q875.432 211.127 875.205 210.762H874.866V216ZM877.728 210.276Q878.992 210.276 879.807 209.472Q880.623 208.667 880.623 207.154V206.961Q880.623 205.448 879.799 204.643Q878.975 203.839 877.728 203.839Q876.484 203.839 875.658 204.643Q874.833 205.448 874.833 206.961V207.154Q874.833 208.667 875.658 209.472Q876.484 210.276 877.728 210.276ZM890.036 212.28Q888.556 212.28 887.388 211.675Q886.22 211.07 885.552 209.931Q884.885 208.793 884.885 207.21V206.904Q884.885 205.322 885.552 204.184Q886.22 203.045 887.388 202.44Q888.556 201.835 890.036 201.835Q891.516 201.835 892.683 202.44Q893.851 203.045 894.519 204.184Q895.187 205.322 895.187 206.904V207.21Q895.187 208.793 894.519 209.931Q893.851 211.07 892.683 211.675Q891.516 212.28 890.036 212.28ZM890.036 210.243Q891.294 210.243 892.096 209.433Q892.898 208.624 892.898 207.154V206.961Q892.898 205.491 892.104 204.682Q891.31 203.872 890.036 203.872Q888.781 203.872 887.978 204.682Q887.174 205.491 887.174 206.961V207.154Q887.174 208.624 887.978 209.433Q888.781 210.243 890.036 210.243ZM897.633 212V202.115H899.882V203.252H900.221Q900.451 202.642 900.968 202.358Q901.485 202.075 902.218 202.075H903.407V204.119H902.16Q901.176 204.119 900.549 204.648Q899.922 205.178 899.922 206.283V212ZM909.209 212Q908.264 212 907.693 211.427Q907.121 210.853 907.121 209.886V204.02H904.529V202.115H907.121V198.937H909.41V202.115H912.249V204.02H909.41V209.495Q909.41 210.095 909.977 210.095H911.96V212Z" aria-label="Report" role="img" /><path fill="#a8b8d5" d="M808.312 238V229.11H810.341L812.698 237.326H812.873L815.23 229.11H817.26V238H816.229V229.81H816.055L813.701 238H811.87L809.517 229.81H809.342V238ZM821.24 238.178Q820.585 238.178 820.056 237.952Q819.527 237.726 819.221 237.289Q818.914 236.851 818.914 236.231Q818.914 235.601 819.221 235.185Q819.527 234.77 820.057 234.561Q820.587 234.352 821.244 234.352H823.35V233.898Q823.35 233.237 822.963 232.856Q822.575 232.476 821.812 232.476Q821.062 232.476 820.639 232.839Q820.216 233.202 820.073 233.805L819.123 233.508Q819.275 232.981 819.607 232.554Q819.939 232.127 820.491 231.87Q821.043 231.613 821.819 231.613Q823.01 231.613 823.675 232.226Q824.341 232.84 824.341 233.958V236.767Q824.341 237.148 824.696 237.148H825.267V238H824.381Q823.965 238 823.714 237.767Q823.464 237.534 823.464 237.135V237.068H823.303Q823.172 237.311 822.935 237.572Q822.699 237.833 822.291 238.005Q821.883 238.178 821.24 238.178ZM821.357 237.315Q822.247 237.315 822.799 236.787Q823.35 236.259 823.35 235.312V235.167H821.286Q820.689 235.167 820.304 235.426Q819.919 235.684 819.919 236.207Q819.919 236.73 820.317 237.023Q820.714 237.315 821.357 237.315ZM826.634 238V229.11H827.639V234.341H827.814L830.663 231.791H832.06L828.62 234.812L832.162 238H830.781L827.814 235.3H827.639V238ZM836.315 238.178Q835.367 238.178 834.658 237.778Q833.949 237.378 833.554 236.652Q833.158 235.926 833.158 234.972V234.819Q833.158 233.856 833.552 233.135Q833.946 232.413 834.643 232.013Q835.341 231.613 836.245 231.613Q837.127 231.613 837.799 231.99Q838.471 232.367 838.852 233.061Q839.233 233.755 839.233 234.702V235.149H834.171Q834.205 236.157 834.811 236.722Q835.417 237.286 836.33 237.286Q837.138 237.286 837.569 236.922Q837.999 236.557 838.227 236.048L839.093 236.464Q838.907 236.857 838.57 237.253Q838.233 237.65 837.693 237.914Q837.152 238.178 836.315 238.178ZM834.184 234.334H838.212Q838.161 233.463 837.625 232.984Q837.089 232.505 836.241 232.505Q835.395 232.505 834.852 232.984Q834.308 233.463 834.184 234.334ZM846.529 238Q845.997 238 845.709 237.707Q845.421 237.415 845.421 236.902V232.661H843.557V231.791H845.421V229.583H846.426V231.791H848.459V232.661H846.426V236.749Q846.426 237.13 846.799 237.13H848.181V238ZM850.088 238V229.11H851.093V232.782H851.267Q851.405 232.507 851.661 232.254Q851.918 232.001 852.334 231.841Q852.75 231.68 853.381 231.68Q854.072 231.68 854.629 231.976Q855.186 232.272 855.514 232.84Q855.841 233.408 855.841 234.241V238H854.836V234.314Q854.836 233.386 854.374 232.972Q853.912 232.558 853.12 232.558Q852.23 232.558 851.661 233.141Q851.093 233.725 851.093 234.881V238ZM860.727 238.178Q859.778 238.178 859.07 237.778Q858.361 237.378 857.965 236.652Q857.57 235.926 857.57 234.972V234.819Q857.57 233.856 857.964 233.135Q858.357 232.413 859.055 232.013Q859.753 231.613 860.656 231.613Q861.538 231.613 862.211 231.99Q862.883 232.367 863.264 233.061Q863.645 233.755 863.645 234.702V235.149H858.582Q858.617 236.157 859.223 236.722Q859.829 237.286 860.742 237.286Q861.55 237.286 861.98 236.922Q862.41 236.557 862.639 236.048L863.505 236.464Q863.318 236.857 862.982 237.253Q862.645 237.65 862.104 237.914Q861.563 238.178 860.727 238.178ZM858.595 234.334H862.624Q862.573 233.463 862.037 232.984Q861.5 232.505 860.653 232.505Q859.807 232.505 859.263 232.984Q858.72 233.463 858.595 234.334ZM869.876 238V232.661H867.969V231.791H869.876V230.208Q869.876 229.695 870.164 229.403Q870.452 229.11 870.984 229.11H872.545V229.98H871.254Q870.881 229.98 870.881 230.361V231.791H872.838V232.661H870.881V238ZM874.263 238V231.791H875.268V238ZM874.766 230.82Q874.442 230.82 874.22 230.604Q873.999 230.387 873.999 230.056Q873.999 229.716 874.22 229.505Q874.442 229.293 874.766 229.293Q875.102 229.293 875.318 229.505Q875.533 229.716 875.533 230.056Q875.533 230.387 875.318 230.604Q875.102 230.82 874.766 230.82ZM876.866 238 879.36 234.852 876.937 231.791H878.151L880.001 234.193H880.175L882.025 231.791H883.239L880.816 234.852L883.309 238H882.079L880.175 235.518H880.001L878.097 238ZM890.08 238.178Q889.425 238.178 888.896 237.952Q888.367 237.726 888.06 237.289Q887.754 236.851 887.754 236.231Q887.754 235.601 888.06 235.185Q888.367 234.77 888.897 234.561Q889.427 234.352 890.084 234.352H892.19V233.898Q892.19 233.237 891.802 232.856Q891.415 232.476 890.652 232.476Q889.902 232.476 889.479 232.839Q889.056 233.202 888.913 233.805L887.963 233.508Q888.115 232.981 888.447 232.554Q888.779 232.127 889.331 231.87Q889.882 231.613 890.659 231.613Q891.85 231.613 892.515 232.226Q893.18 232.84 893.18 233.958V236.767Q893.18 237.148 893.536 237.148H894.107V238H893.221Q892.805 238 892.554 237.767Q892.303 237.534 892.303 237.135V237.068H892.143Q892.011 237.311 891.775 237.572Q891.538 237.833 891.13 238.005Q890.722 238.178 890.08 238.178ZM890.197 237.315Q891.087 237.315 891.638 236.787Q892.19 236.259 892.19 235.312V235.167H890.126Q889.528 235.167 889.144 235.426Q888.759 235.684 888.759 236.207Q888.759 236.73 889.156 237.023Q889.554 237.315 890.197 237.315ZM898.334 238.178Q897.428 238.178 896.712 237.792Q895.996 237.407 895.583 236.683Q895.169 235.959 895.169 234.966V234.825Q895.169 233.823 895.583 233.104Q895.996 232.384 896.712 231.999Q897.428 231.613 898.334 231.613Q899.226 231.613 899.851 231.944Q900.477 232.275 900.841 232.819Q901.205 233.362 901.305 233.988L900.323 234.192Q900.263 233.73 900.032 233.349Q899.8 232.967 899.381 232.74Q898.963 232.513 898.345 232.513Q897.727 232.513 897.236 232.794Q896.745 233.076 896.459 233.597Q896.174 234.118 896.174 234.841V234.95Q896.174 235.673 896.459 236.194Q896.745 236.715 897.236 236.997Q897.727 237.278 898.345 237.278Q899.276 237.278 899.763 236.796Q900.251 236.313 900.37 235.595L901.352 235.81Q901.223 236.429 900.85 236.972Q900.477 237.516 899.851 237.847Q899.226 238.178 898.334 238.178ZM905.356 238Q904.824 238 904.536 237.707Q904.248 237.415 904.248 236.902V232.661H902.384V231.791H904.248V229.583H905.253V231.791H907.286V232.661H905.253V236.749Q905.253 237.13 905.626 237.13H907.008V238ZM908.915 238V231.791H909.92V238ZM909.417 230.82Q909.093 230.82 908.872 230.604Q908.65 230.387 908.65 230.056Q908.65 229.716 908.872 229.505Q909.093 229.293 909.417 229.293Q909.753 229.293 909.969 229.505Q910.184 229.716 910.184 230.056Q910.184 230.387 909.969 230.604Q909.753 230.82 909.417 230.82ZM914.893 238.178Q913.953 238.178 913.236 237.783Q912.518 237.389 912.118 236.669Q911.717 235.95 911.717 234.979V234.812Q911.717 233.841 912.118 233.122Q912.518 232.402 913.236 232.008Q913.953 231.613 914.893 231.613Q915.833 231.613 916.551 232.008Q917.268 232.402 917.669 233.122Q918.069 233.841 918.069 234.812V234.979Q918.069 235.95 917.669 236.669Q917.268 237.389 916.551 237.783Q915.833 238.178 914.893 238.178ZM914.893 237.278Q915.882 237.278 916.473 236.649Q917.064 236.019 917.064 234.95V234.841Q917.064 233.772 916.475 233.142Q915.886 232.513 914.893 232.513Q913.913 232.513 913.318 233.142Q912.722 233.772 912.722 234.841V234.95Q912.722 236.019 913.318 236.649Q913.913 237.278 914.893 237.278ZM919.867 238V231.791H920.846V232.842H921.021Q921.227 232.394 921.719 232.033Q922.21 231.671 923.16 231.671Q923.852 231.671 924.408 231.967Q924.965 232.263 925.293 232.836Q925.62 233.408 925.62 234.241V238H924.615V234.314Q924.615 233.386 924.153 232.967Q923.691 232.549 922.899 232.549Q922.009 232.549 921.441 233.137Q920.872 233.725 920.872 234.881V238ZM929.565 238.178Q928.91 238.178 928.381 237.952Q927.852 237.726 927.545 237.289Q927.238 236.851 927.238 236.231Q927.238 235.601 927.545 235.185Q927.852 234.77 928.382 234.561Q928.912 234.352 929.569 234.352H931.675V233.898Q931.675 233.237 931.287 232.856Q930.899 232.476 930.136 232.476Q929.386 232.476 928.963 232.839Q928.541 233.202 928.398 233.805L927.447 233.508Q927.6 232.981 927.932 232.554Q928.264 232.127 928.815 231.87Q929.367 231.613 930.144 231.613Q931.334 231.613 932 232.226Q932.665 232.84 932.665 233.958V236.767Q932.665 237.148 933.021 237.148H933.592V238H932.705Q932.289 238 932.039 237.767Q931.788 237.534 931.788 237.135V237.068H931.628Q931.496 237.311 931.259 237.572Q931.023 237.833 930.615 238.005Q930.207 238.178 929.565 238.178ZM929.682 237.315Q930.571 237.315 931.123 236.787Q931.675 236.259 931.675 235.312V235.167H929.611Q929.013 235.167 928.628 235.426Q928.244 235.684 928.244 236.207Q928.244 236.73 928.641 237.023Q929.038 237.315 929.682 237.315ZM938.4 238.178Q937.432 238.178 936.898 237.809Q936.365 237.44 936.113 236.976H935.938V238H934.958V229.11H935.963V232.767H936.138Q936.296 232.476 936.576 232.214Q936.856 231.952 937.306 231.783Q937.757 231.613 938.4 231.613Q939.216 231.613 939.882 231.997Q940.548 232.381 940.942 233.1Q941.335 233.819 941.335 234.812V234.979Q941.335 235.972 940.937 236.691Q940.539 237.41 939.873 237.794Q939.207 238.178 938.4 238.178ZM938.134 237.286Q939.096 237.286 939.704 236.67Q940.312 236.054 940.312 234.95V234.841Q940.312 233.737 939.706 233.121Q939.1 232.505 938.134 232.505Q937.181 232.505 936.569 233.121Q935.956 233.737 935.956 234.841V234.95Q935.956 236.054 936.569 236.67Q937.181 237.286 938.134 237.286ZM943.133 238V229.11H944.138V238ZM949.093 238.178Q948.144 238.178 947.436 237.778Q946.727 237.378 946.332 236.652Q945.936 235.926 945.936 234.972V234.819Q945.936 233.856 946.33 233.135Q946.723 232.413 947.421 232.013Q948.119 231.613 949.023 231.613Q949.905 231.613 950.577 231.99Q951.249 232.367 951.63 233.061Q952.011 233.755 952.011 234.702V235.149H946.948Q946.983 236.157 947.589 236.722Q948.195 237.286 949.108 237.286Q949.916 237.286 950.346 236.922Q950.777 236.557 951.005 236.048L951.871 236.464Q951.684 236.857 951.348 237.253Q951.011 237.65 950.47 237.914Q949.93 238.178 949.093 238.178ZM946.961 234.334H950.99Q950.939 233.463 950.403 232.984Q949.867 232.505 949.019 232.505Q948.173 232.505 947.629 232.984Q947.086 233.463 946.961 234.334Z" aria-label="Make the fix actionable" role="img" /></svg>
