<svg xmlns="http://www.w3.org/2000/svg" width="560" height="1210" viewBox="0 0 560 1210" role="img" aria-labelledby="title desc">
<title id="title">Uzmanlık alanları</title><desc id="desc">Web ve API güvenliği: erişim kontrolü, kimlik doğrulama, enjeksiyon, SSRF, iş mantığı, keşif ve otomasyon.</desc>
<defs>
<linearGradient id="panel" x1="0" y1="0" x2="1" y2="1"><stop stop-color="#10152a"/><stop offset="1" stop-color="#070b14"/></linearGradient>
<linearGradient id="card" x1="0" y1="0" x2="1" y2="1"><stop stop-color="#141c32"/><stop offset="1" stop-color="#0c1222"/></linearGradient>
<linearGradient id="spectrum" gradientUnits="userSpaceOnUse" x1="32" y1="1" x2="528" y2="1"><stop stop-color="#60e7f9"/><stop offset="0.5" stop-color="#a78bfa"/><stop offset="1" stop-color="#ff73b9"/></linearGradient>
<radialGradient id="halo"><stop stop-color="#5941b8" stop-opacity=".28"/><stop offset="1" stop-color="#5941b8" stop-opacity="0"/></radialGradient>
<filter id="glow" x="-100%" y="-100%" width="300%" height="300%"><feGaussianBlur stdDeviation="3"/></filter>
<pattern id="grid" width="28" height="28" patternUnits="userSpaceOnUse"><path d="M28 0H0V28" fill="none" stroke="#7386bd" stroke-opacity=".045"/></pattern>
</defs>
<style>
.trace {stroke-dasharray:28 580; animation:travel 11s linear infinite;}
.trace-alt {stroke-dasharray:18 510; animation:travel 15s linear infinite reverse;}
.breathe {animation:breathe 5s ease-in-out infinite;}
@keyframes travel {to {stroke-dashoffset:-1216;}}
@keyframes breathe {0%,100% {opacity:.30;} 50% {opacity:.65;}}
@media (prefers-reduced-motion: reduce) { .trace,.trace-alt,.breathe {animation:none;} }
</style>
<rect x="1" y="1" width="558" height="1208" rx="24" fill="url(#panel)" stroke="#26304a"/>
<rect x="2" y="2" width="556" height="1206" rx="23" fill="url(#grid)"/>
<ellipse cx="464.79999999999995" cy="55" rx="196.0" ry="230" fill="url(#halo)"/>
<path d="M32 1H528" stroke="url(#spectrum)" stroke-width="2" opacity=".8"/>
<text x="32" y="49" font-family="JetBrains Mono" font-size="24" font-weight="500" letter-spacing="1.3" fill="#9faccc" text-anchor="start">UZMANLIK ALANLARI</text><text x="32" y="92" font-family="Space Grotesk" font-size="32" font-weight="600" letter-spacing="0" fill="#eff4ff" text-anchor="start">Sistemin sınırlarını keşfet.</text><path d="M14 160V1087Q14 1124 50 1124H546V198Q546 160 508 160H14" fill="none" stroke="#4a527c" stroke-opacity=".18"/><path d="M14 160V1087Q14 1124 50 1124H546V198Q546 160 508 160H14" class="trace" fill="none" stroke="#60e7f9" stroke-opacity=".55" stroke-width="1.5"/><path d="M14 160V1087Q14 1124 50 1124H546V198Q546 160 508 160H14" class="trace-alt" fill="none" stroke="#ff73b9" stroke-opacity=".5" stroke-width="1.5"/><g transform="translate(28 122)"><rect width="504" height="159" rx="16" fill="url(#card)" stroke="#29334d"/><path d="M16 1H488" stroke="#60e7f9" stroke-opacity=".40"/><path d="M1 36V16Q1 1 16 1h28" stroke="#60e7f9" stroke-width="1.5" fill="none"/><circle cx="476" cy="28" r="18" fill="#60e7f9" opacity=".06"/><rect x="428" y="21" width="54" height="54" rx="13" fill="#60e7f9" fill-opacity=".09" stroke="#60e7f9" stroke-opacity=".18"/><g transform="translate(437 29) scale(0.92)" color="#60e7f9" fill="none" stroke="#60e7f9" stroke-width="1.6" stroke-linecap="round" stroke-linejoin="round"><path d="M20 4 33 9v11c0 9-6 15-13 18C13 35 7 29 7 20V9Z"/><rect x="14" y="17" width="12" height="10" rx="2"/><path d="M16 17v-3a4 4 0 0 1 8 0v3m-4 5v2"/></g><text x="22" y="47" font-family="JetBrains Mono" font-size="24" font-weight="500" letter-spacing="0" fill="#60e7f9" text-anchor="start">01</text><text x="64" y="47" font-family="Space Grotesk" font-size="28" font-weight="600" letter-spacing="0" fill="#f2f5ff" text-anchor="start">Erişim kontrolü</text><text x="22" y="104" font-family="Space Grotesk" font-size="24" font-weight="400" letter-spacing="0" fill="#c8d2e8" text-anchor="start">IDOR · BOLA · yetkilendirme</text><text x="22" y="138" font-family="Space Grotesk" font-size="24" font-weight="400" letter-spacing="0" fill="#98a9ca" text-anchor="start">Yetki sınırları ve nesne erişimi</text></g><g transform="translate(28 299)"><rect width="504" height="159" rx="16" fill="url(#card)" stroke="#29334d"/><path d="M16 1H488" stroke="#a78bfa" stroke-opacity=".40"/><path d="M1 36V16Q1 1 16 1h28" stroke="#a78bfa" stroke-width="1.5" fill="none"/><circle cx="476" cy="28" r="18" fill="#a78bfa" opacity=".06"/><rect x="428" y="21" width="54" height="54" rx="13" fill="#a78bfa" fill-opacity=".09" stroke="#a78bfa" stroke-opacity=".18"/><g transform="translate(437 29) scale(0.92)" color="#a78bfa" fill="none" stroke="#a78bfa" stroke-width="1.6" stroke-linecap="round" stroke-linejoin="round"><circle cx="14" cy="15" r="7"/><path d="m19 20 13 13m-5-5 5-5m-9 1 4-4"/><circle cx="14" cy="15" r="1.5" fill="currentColor" stroke="none"/></g><text x="22" y="47" font-family="JetBrains Mono" font-size="24" font-weight="500" letter-spacing="0" fill="#a78bfa" text-anchor="start">02</text><text x="64" y="47" font-family="Space Grotesk" font-size="28" font-weight="600" letter-spacing="0" fill="#f2f5ff" text-anchor="start">Kimlik doğrulama</text><text x="22" y="104" font-family="Space Grotesk" font-size="24" font-weight="400" letter-spacing="0" fill="#c8d2e8" text-anchor="start">Oturumlar · JWT · giriş akışları</text><text x="22" y="138" font-family="Space Grotesk" font-size="24" font-weight="400" letter-spacing="0" fill="#98a9ca" text-anchor="start">Kimlik ve token yaşam döngüsü</text></g><g transform="translate(28 476)"><rect width="504" height="159" rx="16" fill="url(#card)" stroke="#29334d"/><path d="M16 1H488" stroke="#ff73b9" stroke-opacity=".40"/><path d="M1 36V16Q1 1 16 1h28" stroke="#ff73b9" stroke-width="1.5" fill="none"/><circle cx="476" cy="28" r="18" fill="#ff73b9" opacity=".06"/><rect x="428" y="21" width="54" height="54" rx="13" fill="#ff73b9" fill-opacity=".09" stroke="#ff73b9" stroke-opacity=".18"/><g transform="translate(437 29) scale(0.92)" color="#ff73b9" fill="none" stroke="#ff73b9" stroke-width="1.6" stroke-linecap="round" stroke-linejoin="round"><path d="m12 11-8 9 8 9m16-18 8 9-8 9M23 7l-6 26"/><path d="M5 36h30" opacity=".4"/></g><text x="22" y="47" font-family="JetBrains Mono" font-size="24" font-weight="500" letter-spacing="0" fill="#ff73b9" text-anchor="start">03</text><text x="64" y="47" font-family="Space Grotesk" font-size="28" font-weight="600" letter-spacing="0" fill="#f2f5ff" text-anchor="start">Enjeksiyon</text><text x="22" y="104" font-family="Space Grotesk" font-size="24" font-weight="400" letter-spacing="0" fill="#c8d2e8" text-anchor="start">SQL enjeksiyonu · XSS</text><text x="22" y="138" font-family="Space Grotesk" font-size="24" font-weight="400" letter-spacing="0" fill="#98a9ca" text-anchor="start">Girdi işleme ve yürütme yolları</text></g><g transform="translate(28 653)"><rect width="504" height="159" rx="16" fill="url(#card)" stroke="#29334d"/><path d="M16 1H488" stroke="#7ef5bd" stroke-opacity=".40"/><path d="M1 36V16Q1 1 16 1h28" stroke="#7ef5bd" stroke-width="1.5" fill="none"/><circle cx="476" cy="28" r="18" fill="#7ef5bd" opacity=".06"/><rect x="428" y="21" width="54" height="54" rx="13" fill="#7ef5bd" fill-opacity=".09" stroke="#7ef5bd" stroke-opacity=".18"/><g transform="translate(437 29) scale(0.92)" color="#7ef5bd" fill="none" stroke="#7ef5bd" stroke-width="1.6" stroke-linecap="round" stroke-linejoin="round"><rect x="4" y="5" width="19" height="11" rx="3"/><path d="M8 10h2m3 0h6"/><rect x="4" y="24" width="19" height="11" rx="3"/><path d="M8 29h2m3 0h6M24 10h9v19H23m7-3 3 3 3-3M10 16v8"/></g><text x="22" y="47" font-family="JetBrains Mono" font-size="24" font-weight="500" letter-spacing="0" fill="#7ef5bd" text-anchor="start">04</text><text x="64" y="47" font-family="Space Grotesk" font-size="28" font-weight="600" letter-spacing="0" fill="#f2f5ff" text-anchor="start">SSRF</text><text x="22" y="104" font-family="Space Grotesk" font-size="24" font-weight="400" letter-spacing="0" fill="#c8d2e8" text-anchor="start">Sunucu taraflı istek davranışı</text><text x="22" y="138" font-family="Space Grotesk" font-size="24" font-weight="400" letter-spacing="0" fill="#98a9ca" text-anchor="start">Güven sınırları ve URL işleme</text></g><g transform="translate(28 830)"><rect width="504" height="159" rx="16" fill="url(#card)" stroke="#29334d"/><path d="M16 1H488" stroke="#60e7f9" stroke-opacity=".40"/><path d="M1 36V16Q1 1 16 1h28" stroke="#60e7f9" stroke-width="1.5" fill="none"/><circle cx="476" cy="28" r="18" fill="#60e7f9" opacity=".06"/><rect x="428" y="21" width="54" height="54" rx="13" fill="#60e7f9" fill-opacity=".09" stroke="#60e7f9" stroke-opacity=".18"/><g transform="translate(437 29) scale(0.92)" color="#60e7f9" fill="none" stroke="#60e7f9" stroke-width="1.6" stroke-linecap="round" stroke-linejoin="round"><rect x="2" y="14" width="11" height="12" rx="3"/><rect x="26" y="2" width="11" height="12" rx="3"/><rect x="26" y="27" width="11" height="12" rx="3"/><path d="M13 20h7V8h6m-6 12v13h6"/><circle cx="20" cy="20" r="3" fill="currentColor" stroke="none"/></g><text x="22" y="47" font-family="JetBrains Mono" font-size="24" font-weight="500" letter-spacing="0" fill="#60e7f9" text-anchor="start">05</text><text x="64" y="47" font-family="Space Grotesk" font-size="28" font-weight="600" letter-spacing="0" fill="#f2f5ff" text-anchor="start">API ve iş mantığı</text><text x="22" y="104" font-family="Space Grotesk" font-size="24" font-weight="400" letter-spacing="0" fill="#c8d2e8" text-anchor="start">REST · GraphQL · iş akışları</text><text x="22" y="138" font-family="Space Grotesk" font-size="24" font-weight="400" letter-spacing="0" fill="#98a9ca" text-anchor="start">Durum geçişleri ve mantık hataları</text></g><g transform="translate(28 1007)"><rect width="504" height="159" rx="16" fill="url(#card)" stroke="#29334d"/><path d="M16 1H488" stroke="#a78bfa" stroke-opacity=".40"/><path d="M1 36V16Q1 1 16 1h28" stroke="#a78bfa" stroke-width="1.5" fill="none"/><circle cx="476" cy="28" r="18" fill="#a78bfa" opacity=".06"/><rect x="428" y="21" width="54" height="54" rx="13" fill="#a78bfa" fill-opacity=".09" stroke="#a78bfa" stroke-opacity=".18"/><g transform="translate(437 29) scale(0.92)" color="#a78bfa" fill="none" stroke="#a78bfa" stroke-width="1.6" stroke-linecap="round" stroke-linejoin="round"><circle cx="18" cy="18" r="13"/><circle cx="18" cy="18" r="6" opacity=".6"/><path d="M18 1v5m0 24v5M1 18h5m24 0h5M18 18l9-9m0 18 10 10"/><circle cx="18" cy="18" r="1.5" fill="currentColor" stroke="none"/></g><text x="22" y="47" font-family="JetBrains Mono" font-size="24" font-weight="500" letter-spacing="0" fill="#a78bfa" text-anchor="start">06</text><text x="64" y="47" font-family="Space Grotesk" font-size="28" font-weight="600" letter-spacing="0" fill="#f2f5ff" text-anchor="start">Keşif ve otomasyon</text><text x="22" y="104" font-family="Space Grotesk" font-size="24" font-weight="400" letter-spacing="0" fill="#c8d2e8" text-anchor="start">Varlık haritalama · Python · Bash</text><text x="22" y="138" font-family="Space Grotesk" font-size="24" font-weight="400" letter-spacing="0" fill="#98a9ca" text-anchor="start">Tekrarlanabilir keşif ve test</text></g></svg>
